<?xml version="1.0" encoding="UTF-8" standalone="no"?>
<!-- Created with Inkscape (http://www.inkscape.org/) -->

<svg
   xmlns:dc="http://purl.org/dc/elements/1.1/"
   xmlns:cc="http://creativecommons.org/ns#"
   xmlns:rdf="http://www.w3.org/1999/02/22-rdf-syntax-ns#"
   xmlns:svg="http://www.w3.org/2000/svg"
   xmlns="http://www.w3.org/2000/svg"
   xmlns:xlink="http://www.w3.org/1999/xlink"
   xmlns:sodipodi="http://sodipodi.sourceforge.net/DTD/sodipodi-0.dtd"
   xmlns:inkscape="http://www.inkscape.org/namespaces/inkscape"
   width="301.67719mm"
   height="158.87016mm"
   viewBox="0 0 301.67718 158.87016"
   version="1.1"
   id="svg8"
   inkscape:version="0.92.2 5c3e80d, 2017-08-06"
   sodipodi:docname="gelombang.svg">
  <defs
     id="defs2">
    <inkscape:path-effect
       effect="interpolate"
       id="path-effect972"
       is_visible="true"
       trajectory="m 120.47409,56.923534 19.46479,7.368796"
       equidistant_spacing="true"
       steps="18" />
    <inkscape:perspective
       sodipodi:type="inkscape:persp3d"
       inkscape:vp_x="0 : 79.43508 : 1"
       inkscape:vp_y="0 : 1000 : 0"
       inkscape:vp_z="301.67718 : 79.43508 : 1"
       inkscape:persp3d-origin="150.83859 : 52.95672 : 1"
       id="perspective913" />
    <inkscape:path-effect
       effect="interpolate"
       id="path-effect903"
       is_visible="true"
       trajectory="m 157.12526,135.65469 -1.6884,11.46525"
       equidistant_spacing="true"
       steps="18" />
    <inkscape:path-effect
       effect="spiro"
       id="path-effect882"
       is_visible="true" />
    <inkscape:path-effect
       effect="interpolate"
       id="path-effect878"
       is_visible="true"
       trajectory="M 0,0 V 0"
       equidistant_spacing="true"
       steps="5" />
    <linearGradient
       id="linearGradient874"
       inkscape:collect="always">
      <stop
         id="stop870"
         offset="0"
         style="stop-color:#bc0500;stop-opacity:1;" />
      <stop
         id="stop872"
         offset="1"
         style="stop-color:#00c420;stop-opacity:0.96470588" />
    </linearGradient>
    <inkscape:path-effect
       effect="interpolate"
       id="path-effect860"
       is_visible="true"
       trajectory="m 224.59001,56.59544 -5.94424,9.588382"
       equidistant_spacing="true"
       steps="13" />
    <inkscape:path-effect
       effect="spiro"
       id="path-effect837"
       is_visible="true" />
    <linearGradient
       inkscape:collect="always"
       id="linearGradient12480-2">
      <stop
         style="stop-color:#bc0500;stop-opacity:1;"
         offset="0"
         id="stop12476" />
      <stop
         style="stop-color:#24d000;stop-opacity:0.96396399"
         offset="1"
         id="stop12478" />
    </linearGradient>
    <marker
       inkscape:stockid="Arrow1Lstart"
       orient="auto"
       refY="0"
       refX="0"
       id="Arrow1Lstart"
       style="overflow:visible"
       inkscape:isstock="true">
      <path
         id="path6289"
         d="M 0,0 5,-5 -12.5,0 5,5 Z"
         style="fill:#bc0500;fill-opacity:1;fill-rule:evenodd;stroke:#bc0500;stroke-width:1.00000003pt;stroke-opacity:1"
         transform="matrix(0.8,0,0,0.8,10,0)"
         inkscape:connector-curvature="0" />
    </marker>
    <inkscape:path-effect
       effect="interpolate"
       id="path-effect3773"
       is_visible="true"
       trajectory="M 154.37284,88.701473 85.715854,77.29044"
       equidistant_spacing="true"
       steps="52"
       trajectory-nodetypes="cc" />
    <inkscape:path-effect
       effect="spiro"
       id="path-effect3749"
       is_visible="true" />
    <inkscape:path-effect
       effect="interpolate"
       id="path-effect3745"
       is_visible="true"
       trajectory="M 79.402643,207.41963 112.25034,200.3595"
       equidistant_spacing="true"
       steps="5" />
    <inkscape:path-effect
       effect="spiro"
       id="path-effect3742"
       is_visible="true" />
    <inkscape:path-effect
       effect="spiro"
       id="path-effect3717"
       is_visible="true" />
    <inkscape:path-effect
       effect="spiro"
       id="path-effect3711"
       is_visible="true" />
    <inkscape:path-effect
       effect="spiro"
       id="path-effect3707"
       is_visible="true" />
    <inkscape:path-effect
       effect="spiro"
       id="path-effect3749-3"
       is_visible="true" />
    <radialGradient
       inkscape:collect="always"
       xlink:href="#linearGradient12480-2"
       id="radialGradient13115"
       cx="135.87323"
       cy="143.14932"
       fx="135.87323"
       fy="143.14932"
       r="115.50269"
       gradientTransform="matrix(1.3189802,0,0,0.65846107,-27.337761,-16.956816)"
       gradientUnits="userSpaceOnUse" />
    <inkscape:path-effect
       effect="spiro"
       id="path-effect837-3"
       is_visible="true" />
    <radialGradient
       inkscape:collect="always"
       xlink:href="#linearGradient874"
       id="radialGradient868"
       cx="221.66438"
       cy="61.339615"
       fx="221.66438"
       fy="61.339615"
       r="73.418434"
       gradientTransform="matrix(1.4197861,-0.11530509,0.08213323,1.0113299,-98.089628,24.864064)"
       gradientUnits="userSpaceOnUse" />
    <inkscape:path-effect
       effect="spiro"
       id="path-effect882-7"
       is_visible="true" />
  </defs>
  <sodipodi:namedview
     id="base"
     pagecolor="#ffffff"
     bordercolor="#666666"
     borderopacity="1.0"
     inkscape:pageopacity="0.0"
     inkscape:pageshadow="2"
     inkscape:zoom="0.7"
     inkscape:cx="566.61858"
     inkscape:cy="516.05803"
     inkscape:document-units="mm"
     inkscape:current-layer="layer1"
     showgrid="false"
     inkscape:snap-bbox="true"
     inkscape:snap-global="false"
     inkscape:window-width="1366"
     inkscape:window-height="694"
     inkscape:window-x="0"
     inkscape:window-y="0"
     inkscape:window-maximized="1" />
  <metadata
     id="metadata5">
    <rdf:RDF>
      <cc:Work
         rdf:about="">
        <dc:format>image/svg+xml</dc:format>
        <dc:type
           rdf:resource="http://purl.org/dc/dcmitype/StillImage" />
        <dc:title />
      </cc:Work>
    </rdf:RDF>
  </metadata>
  <g
     inkscape:label="Layer 1"
     inkscape:groupmode="layer"
     id="layer1"
     transform="translate(-2.545488,2.1626575)">
    <path
       id="path3747-6"
       style="opacity:1;fill:none;fill-opacity:1;fill-rule:nonzero;stroke:url(#radialGradient13115);stroke-width:0.22845884;stroke-linecap:butt;stroke-linejoin:miter;stroke-miterlimit:4;stroke-dasharray:none;stroke-opacity:1"
       inkscape:path-effect="#path-effect3749-3;#path-effect3773"
       inkscape:original-d="m -38.231692,14.60611 c 2.784885,26.751191 94.735822,49.926907 109.854206,29.895735 2.188396,-2.899489 27.513937,44.026017 28.343327,46.624288 4.795329,15.021307 84.237669,-24.270149 95.784629,-10.706057 10.11001,11.876095 19.05365,8.162999 34.27001,11.142086 11.48839,2.249201 19.90664,7.043541 31.43479,4.034208 M 11.281909,-14.234084 c 29.576656,11.6631618 -19.9383556,88.654343 51.215906,68.655031 2.454229,-0.689828 12.390954,14.25247 11.529984,16.82282 13.23345,34.088743 38.383601,-24.420622 49.930571,-10.856552 10.11002,11.87614 18.7265,46.498595 42.25835,49.477685 35.67891,20.77003 -0.30083,37.67409 11.22732,34.66475"
       d="m 4.529359,53.365474 c 18.13691,-11.049739 40.868332,-14.27026 61.360847,-8.693425 13.661676,3.71789 26.199835,11.31076 36.014344,21.505289 4.90726,5.097264 9.1336,10.844943 12.47901,17.083871 4.36405,8.138593 7.25565,16.979821 11.23164,25.314871 1.32533,2.77835 2.79909,5.52707 4.46483,8.13892 3.33149,5.22368 7.43094,9.89986 12.64686,13.1705 6.9989,4.38865 15.52763,5.8929 23.77712,5.45608 8.24949,-0.43681 16.29394,-2.70479 24.10461,-5.39521 5.20711,-1.79361 10.35062,-3.78219 15.55586,-5.5766 2.60263,-0.8972 5.22068,-1.74586 7.86985,-2.49732 7.94749,-2.2544 16.2689,-3.62512 24.47719,-2.69301 3.98907,0.45299 7.85249,1.43254 11.65547,2.67376 7.60596,2.48245 14.97019,6.01159 22.61454,8.46833 10.11412,3.25046 20.82765,4.62539 31.43479,4.0342 M 4.4922106,52.278084 C 22.482989,41.707645 44.973086,38.816981 65.262921,44.555044 c 13.526557,3.825375 25.949289,11.451469 35.699399,21.629868 4.82627,5.019192 8.98496,10.676069 12.27995,16.814586 4.324,8.044775 7.20411,16.77862 11.14705,25.016412 1.31432,2.74594 2.77411,5.46285 4.4221,8.04558 3.3738,5.03399 7.51738,9.55308 12.76315,12.71809 7.05986,4.24034 15.63669,5.7066 23.92566,5.3304 8.21928,-0.39422 16.23095,-2.55892 23.99914,-5.11779 5.1788,-1.70591 10.28889,-3.59409 15.45091,-5.28443 2.581,-0.84517 5.17496,-1.64091 7.7971,-2.33984 7.86643,-2.09678 16.07866,-3.31349 24.15564,-2.26709 3.92074,0.4883 7.71558,1.49343 11.44833,2.7554 7.48618,2.5244 14.73537,6.07497 22.25918,8.57416 9.95983,3.32267 20.50733,4.80658 30.95051,4.36292 M 4.4550621,51.190694 C 22.299708,41.099555 44.548481,38.538748 64.635636,44.438038 c 13.391437,3.932861 25.698743,11.592179 35.384454,21.754448 4.74529,4.941119 8.83631,10.507194 12.08088,16.5453 4.28395,7.950957 7.15258,16.577418 11.06248,24.717964 1.3033,2.71351 2.74913,5.39861 4.37936,7.95224 3.41611,4.84429 7.60381,9.20629 12.87944,12.26567 7.12081,4.09204 15.74574,5.5203 24.0742,5.20472 8.18907,-0.35164 16.16795,-2.41306 23.89367,-4.84037 5.15049,-1.61822 10.22717,-3.40599 15.34595,-4.99226 2.55939,-0.79314 5.12925,-1.53596 7.72437,-2.18235 7.78537,-1.93918 15.8884,-3.00186 23.83408,-1.84118 3.85241,0.52361 7.57867,1.55432 11.2412,2.83704 7.36639,2.56635 14.50053,6.13834 21.90381,8.67999 9.80554,3.39488 20.187,4.98777 30.46623,4.69164 M 4.4179137,50.103304 C 22.116427,40.491465 44.123875,38.260515 64.008351,44.321033 c 13.256317,4.040345 25.448197,11.732888 35.069503,21.879026 4.664316,4.863048 8.687676,10.33832 11.881816,16.276016 4.2439,7.857139 7.10105,16.376216 10.9779,24.419505 1.29228,2.6811 2.72415,5.33439 4.33662,7.85891 3.45843,4.65459 7.69026,8.85951 12.99574,11.81324 7.18177,3.94374 15.8548,5.33401 24.22274,5.07905 8.15887,-0.30905 16.10496,-2.26719 23.78821,-4.56296 5.12216,-1.53051 10.16544,-3.21787 15.24098,-4.70008 2.53778,-0.74111 5.08354,-1.43102 7.65164,-2.02487 7.70431,-1.78157 15.69815,-2.69023 23.51253,-1.41525 3.78406,0.5589 7.44175,1.6152 11.03405,2.91866 7.24661,2.6083 14.26571,6.20173 21.54845,8.78583 9.65126,3.46708 19.86667,5.16896 29.98194,5.02036 M 4.3807652,49.015914 C 21.933147,39.883375 43.69927,37.982282 63.381066,44.204028 c 13.121197,4.14783 25.197652,11.873597 34.754555,22.003605 4.583339,4.784975 8.539029,10.169446 11.682759,16.00673 4.20385,7.763322 7.04952,16.175014 10.89331,24.121057 1.28127,2.64868 2.69918,5.27015 4.29389,7.76557 3.50074,4.46489 7.7767,8.51272 13.11203,11.36082 7.24273,3.79543 15.96386,5.14772 24.37128,4.95337 8.12866,-0.26646 16.04196,-2.12133 23.68274,-4.28554 5.09385,-1.44281 10.10372,-3.02977 15.13603,-4.40791 2.51615,-0.68907 5.03782,-1.32607 7.5789,-1.86739 7.62324,-1.62396 15.50789,-2.37859 23.19097,-0.98933 3.71573,0.59421 7.30484,1.67609 10.82692,3.0003 7.12682,2.65025 14.03088,6.2651 21.19308,8.89166 9.49697,3.53929 19.54634,5.35014 29.49766,5.34908 M 4.3436168,47.928523 C 21.749866,39.275285 43.274665,37.704049 62.753781,44.087022 c 12.986077,4.255316 24.947106,12.014307 34.439608,22.128185 4.502361,4.706903 8.390391,10.000571 11.483691,15.737444 4.1638,7.669505 6.99799,15.973813 10.80873,23.822609 1.27025,2.61626 2.6742,5.20592 4.25115,7.67223 3.54306,4.27518 7.86314,8.16593 13.22833,10.9084 7.30368,3.64712 16.07291,4.96142 24.51982,4.82768 8.09845,-0.22386 15.97897,-1.97545 23.57727,-4.00812 5.06554,-1.35511 10.04199,-2.84166 15.03107,-4.11573 2.49454,-0.63704 4.9921,-1.22112 7.50617,-1.7099 7.54218,-1.46635 15.31764,-2.06697 22.86941,-0.56342 3.64739,0.62952 7.16793,1.73698 10.61978,3.08194 7.00704,2.6922 13.79605,6.32848 20.83772,8.99749 9.34268,3.6115 19.22601,5.53133 29.01338,5.6778 M 4.3064684,46.841133 C 21.566585,38.667195 42.85006,37.425816 62.126496,43.970017 c 12.850957,4.3628 24.69656,12.155015 34.12466,22.252764 4.421374,4.62883 8.241744,9.831697 11.284624,15.468159 4.12376,7.575687 6.94646,15.77261 10.72416,23.52415 1.25923,2.58385 2.64922,5.14169 4.20841,7.5789 3.58537,4.08548 7.94958,7.81914 13.34462,10.45598 7.36464,3.49882 16.18197,4.77512 24.66836,4.702 8.06825,-0.18127 15.91597,-1.82959 23.4718,-3.7307 5.03722,-1.26741 9.98027,-2.65355 14.92612,-3.82357 2.47292,-0.585 4.94638,-1.11616 7.43342,-1.55241 7.46113,-1.30874 15.12739,-1.75533 22.54786,-0.1375 3.57906,0.66483 7.03102,1.79787 10.41265,3.16357 6.88725,2.73416 13.56122,6.39187 20.48235,9.10333 9.18839,3.6837 18.90569,5.71252 28.5291,6.00652 M 4.2693199,45.753743 C 21.383305,38.059105 42.425454,37.147583 61.49921,43.853011 c 12.715838,4.470286 24.446015,12.295725 33.809714,22.377344 4.340398,4.550758 8.093106,9.662822 11.085566,15.198873 4.0837,7.481869 6.89492,15.571409 10.63957,23.225702 1.24821,2.55143 2.62424,5.07746 4.16567,7.48556 3.62769,3.89578 8.03603,7.47236 13.46092,10.00356 7.4256,3.35051 16.29103,4.58882 24.8169,4.57632 8.03804,-0.13868 15.85298,-1.68372 23.36633,-3.45329 5.00891,-1.17971 9.91855,-2.46544 14.82116,-3.53139 2.45131,-0.53297 4.90067,-1.01122 7.36069,-1.39493 7.38006,-1.15113 14.93714,-1.44369 22.2263,0.28843 3.51072,0.70012 6.89411,1.85875 10.20551,3.2452 6.76747,2.77611 13.3264,6.45524 20.12699,9.20917 9.03411,3.7559 18.58536,5.8937 28.04481,6.33523 M 4.2321715,44.666353 C 21.200024,37.451015 42.000849,36.86935 60.871925,43.736006 c 12.580718,4.577771 24.195469,12.436434 33.494766,22.501923 4.259419,4.472685 7.944469,9.493947 10.886499,14.929587 4.04365,7.388052 6.8434,15.370208 10.55499,22.927244 1.2372,2.51901 2.59927,5.01323 4.12294,7.39222 3.67,3.70609 8.12246,7.12558 13.57721,9.55115 7.48655,3.2022 16.40008,4.40252 24.96544,4.45064 8.00783,-0.0961 15.78998,-1.53786 23.26087,-3.17587 4.98059,-1.09201 9.85681,-2.27733 14.71619,-3.23922 2.42969,-0.48094 4.85496,-0.90627 7.28796,-1.23744 7.299,-0.99352 14.74689,-1.13207 21.90475,0.71434 3.44238,0.73543 6.75719,1.91965 9.99837,3.32684 6.64768,2.81805 13.09156,6.51862 19.77162,9.315 8.87982,3.82811 18.26503,6.07488 27.56053,6.66395 M 4.195023,43.578962 c 16.82172,-6.736037 37.381221,-6.987845 56.049617,0.04004 12.445598,4.685256 23.944923,12.577143 33.179819,22.626502 4.178439,4.394613 7.795821,9.325073 10.687431,14.660302 4.00361,7.294234 6.79187,15.169005 10.47041,22.628795 1.22619,2.48659 2.57429,4.949 4.0802,7.29888 3.71232,3.51638 8.20891,6.77879 13.69351,9.09873 7.54751,3.05389 16.50914,4.21622 25.11398,4.32495 7.97763,-0.0535 15.72699,-1.39198 23.1554,-2.89844 4.95227,-1.00431 9.79509,-2.08923 14.61124,-2.94705 2.40807,-0.42891 4.80923,-0.80132 7.21522,-1.07996 7.21794,-0.83591 14.55663,-0.82043 21.58319,1.14026 3.37405,0.77074 6.62028,1.98054 9.79123,3.40847 6.52791,2.86001 12.85674,6.582 19.41626,9.42084 8.72553,3.90032 17.9447,6.25607 27.07625,6.99267 M 4.1578746,42.491572 c 16.6755884,-6.256738 36.9937644,-6.178688 55.4594804,1.010423 12.310478,4.792741 23.694378,12.717853 32.864871,22.751081 4.09746,4.316541 7.647184,9.156199 10.488364,14.391017 3.96356,7.200417 6.74034,14.967804 10.38584,22.330337 1.21516,2.45418 2.54931,4.88477 4.03746,7.20555 3.75462,3.32668 8.29534,6.432 13.8098,8.64631 7.60847,2.90559 16.6182,4.02992 25.26252,4.19927 7.94742,-0.0109 15.66399,-1.24611 23.04993,-2.62103 4.92396,-0.91661 9.73337,-1.90112 14.50628,-2.65487 2.38646,-0.37688 4.76352,-0.69638 7.14248,-0.92248 7.13688,-0.6783 14.36639,-0.5088 21.26164,1.56618 3.30571,0.80605 6.48337,2.04143 9.5841,3.49011 6.40812,2.90196 12.62191,6.64538 19.06089,9.52667 8.57124,3.97252 17.62437,6.43726 26.59197,7.32139 M 4.1207261,41.404182 C 20.650182,35.626744 40.727034,36.034651 58.99007,43.38499 c 12.175358,4.900226 23.443832,12.858562 32.549924,22.87566 4.016479,4.238469 7.498539,8.987325 10.289306,14.121732 3.92351,7.106599 6.68881,14.766601 10.30125,22.031888 1.20415,2.42176 2.52433,4.82054 3.99472,7.11221 3.79694,3.13698 8.38179,6.08521 13.9261,8.19389 7.66942,2.75728 16.72725,3.84362 25.41106,4.07359 7.91721,0.0317 15.601,-1.10025 22.94446,-2.34361 4.89565,-0.82891 9.67165,-1.71301 14.40133,-2.3627 2.36484,-0.32484 4.7178,-0.59143 7.06974,-0.76499 7.05582,-0.52069 14.17613,-0.19717 20.94008,1.99209 3.23738,0.84135 6.34646,2.10232 9.37696,3.57175 6.28834,2.94391 12.38708,6.70876 18.70553,9.6325 8.41696,4.04473 17.30405,6.61845 26.10768,7.65011 M 4.0835777,40.316792 c 16.3833233,-5.298138 36.2188503,-4.560374 54.2792073,2.951193 12.040238,5.007711 23.193286,12.99927 32.234976,23.000239 3.9355,4.160396 7.349898,8.81845 10.090239,13.852446 3.88346,7.012782 6.63728,14.5654 10.21667,21.73343 1.19313,2.38935 2.49936,4.75631 3.95199,7.01888 3.83925,2.94728 8.46823,5.73843 14.04239,7.74147 7.73038,2.60897 16.83631,3.65732 25.5596,3.94791 7.88701,0.0743 15.538,-0.95438 22.83899,-2.0662 4.86733,-0.74121 9.60992,-1.5249 14.29637,-2.07052 2.34322,-0.27281 4.67209,-0.48648 6.99701,-0.60751 6.97476,-0.36308 13.98588,0.11446 20.61852,2.41802 3.16904,0.87665 6.20955,2.1632 9.16983,3.65337 6.16855,2.98587 12.15225,6.77214 18.35016,9.73834 8.26267,4.11694 16.98372,6.79964 25.6234,7.97883 M 4.0464293,39.229402 C 20.28362,34.410564 39.877823,35.478185 57.7355,43.150979 c 11.905118,5.115197 22.94274,13.13998 31.920029,23.124819 3.85452,4.082324 7.201256,8.649575 9.891175,13.58316 3.843406,6.918964 6.585746,14.364199 10.132086,21.434982 1.18212,2.35692 2.47438,4.69208 3.90925,6.92554 3.88157,2.75757 8.55467,5.39164 14.15869,7.28905 7.79134,2.46066 16.94537,3.47102 25.70814,3.82223 7.8568,0.11686 15.475,-0.80852 22.73353,-1.78878 4.83901,-0.65351 9.54819,-1.3368 14.1914,-1.77835 2.32161,-0.22078 4.62638,-0.38153 6.92428,-0.45003 6.89369,-0.20547 13.79563,0.4261 20.29696,2.84394 3.10071,0.91196 6.07264,2.22409 8.96269,3.73501 6.04877,3.02781 11.91743,6.83552 17.9948,9.84417 8.10838,4.18914 16.66339,6.98082 25.13912,8.30755 M 4.0092808,38.142011 C 20.10034,33.802474 39.453218,35.199952 57.108215,43.033974 c 11.769998,5.222681 22.692194,13.280689 31.605081,23.249398 3.773541,4.004251 7.052615,8.480701 9.692111,13.313875 3.803363,6.825146 6.534213,14.162996 10.047513,21.136523 1.17109,2.32451 2.4494,4.62785 3.86651,6.83221 3.92388,2.56787 8.64111,5.04485 14.27498,6.83663 7.85229,2.31236 17.05442,3.28472 25.85668,3.69654 7.82659,0.15946 15.41201,-0.66264 22.62806,-1.51135 4.8107,-0.56581 9.48647,-1.14869 14.08645,-1.48618 2.29999,-0.16875 4.58065,-0.27659 6.85153,-0.29254 6.81264,-0.0479 13.60538,0.73772 19.97542,3.26985 3.03236,0.94727 5.93572,2.28498 8.75555,3.81665 5.92898,3.06976 11.68259,6.89889 17.63943,9.95001 7.95409,4.26134 16.34306,7.162 24.65484,8.63626 M 3.9721324,37.054621 C 19.917059,33.194384 39.028613,34.921719 56.48093,42.916969 c 11.634878,5.330166 22.441649,13.421398 31.290134,23.373977 3.692561,3.926179 6.903972,8.311826 9.493045,13.044589 3.763311,6.731329 6.482691,13.961795 9.962931,20.838075 1.16008,2.29209 2.42442,4.56361 3.82377,6.73887 3.9662,2.37817 8.72756,4.69806 14.39128,6.38421 7.91325,2.16405 17.16348,3.09842 26.00522,3.57086 7.79639,0.20205 15.34901,-0.51678 22.52259,-1.23394 4.78238,-0.47811 9.42474,-0.96058 13.98149,-1.194 2.27837,-0.11672 4.53494,-0.17164 6.7788,-0.13506 6.73158,0.10975 13.41513,1.04936 19.65386,3.69577 2.96403,0.98258 5.79881,2.34587 8.54841,3.89828 5.8092,3.11172 11.44777,6.96228 17.28407,10.05585 7.79981,4.33355 16.02273,7.34319 24.17056,8.96498 M 3.9349839,35.967231 c 15.7987941,-3.380937 34.6690231,-1.323745 51.9186611,6.832732 11.499758,5.437652 22.191103,13.562108 30.975186,23.498556 3.611582,3.848107 6.755331,8.142953 9.293981,12.775304 3.723265,6.637512 6.431158,13.760593 9.878348,20.539619 1.14907,2.259678 2.39945,4.499388 3.78104,6.645528 4.00851,2.18848 8.81399,4.35129 14.50757,5.93179 7.97421,2.01575 17.27253,2.91214 26.15377,3.44519 7.76617,0.24464 15.28601,-0.37091 22.41711,-0.95652 4.75407,-0.39041 9.36302,-0.77247 13.87653,-0.90184 2.25676,-0.0647 4.48923,-0.0667 6.70607,0.0224 6.65052,0.26735 13.22487,1.36098 19.3323,4.12168 2.89569,1.01788 5.6619,2.40676 8.34128,3.97992 5.68941,3.15367 11.21294,7.02566 16.9287,10.16168 7.64552,4.40575 15.70241,7.52438 23.68627,9.2937 M 3.8978355,34.879841 C 19.550498,31.978204 38.179402,34.365253 55.22636,42.682958 c 11.364638,5.545137 21.940557,13.702817 30.660239,23.623135 3.530602,3.770035 6.606689,7.974078 9.094916,12.506019 3.683216,6.543694 6.379625,13.559391 9.793765,20.241165 1.13805,2.227263 2.37447,4.435153 3.7383,6.552193 4.05083,1.99877 8.90044,4.0045 14.62387,5.47937 8.03516,1.86744 17.38159,2.72584 26.30231,3.31951 7.73596,0.28722 15.22301,-0.22504 22.31164,-0.67911 4.72576,-0.3027 9.3013,-0.58436 13.77158,-0.60966 2.23514,-0.0126 4.44351,0.0383 6.63333,0.17992 6.56945,0.42496 13.03462,1.67262 19.01074,4.54761 2.82736,1.05318 5.52499,2.46764 8.13414,4.06154 5.56963,3.19562 10.97811,7.08904 16.57334,10.26752 7.49123,4.47796 15.38208,7.70556 23.20199,9.62242 M 3.8606871,33.79245 c 15.5065299,-2.422336 33.8941099,0.29457 50.7383879,8.773502 11.229518,5.652622 21.690011,13.843527 30.345292,23.747715 3.449622,3.691962 6.458047,7.805204 8.895851,12.236733 3.643167,6.449876 6.328092,13.358189 9.709192,19.942712 1.12703,2.194838 2.34949,4.370928 3.69556,6.458858 4.09314,1.80907 8.98688,3.65771 14.74016,5.02695 8.09612,1.71914 17.49065,2.53954 26.45085,3.19382 7.70576,0.32982 15.16002,-0.0792 22.20618,-0.40168 4.69743,-0.21501 9.23957,-0.39626 13.66661,-0.31749 2.21353,0.0394 4.39779,0.14321 6.56059,0.3374 6.4884,0.58258 12.84437,1.98425 18.68919,4.97353 2.75903,1.08849 5.38808,2.52853 7.92701,4.14318 5.44984,3.23757 10.74328,7.15242 16.21797,10.37335 7.33694,4.55017 15.06175,7.88675 22.71771,9.95114 M 3.8235386,32.70506 c 15.3603974,-1.943036 33.5066534,1.103727 50.1482514,9.743887 11.094398,5.760107 21.439465,13.984235 30.030344,23.872294 3.368643,3.61389 6.309406,7.636329 8.696787,11.967448 3.603118,6.356058 6.276566,13.156987 9.624609,19.644258 1.11601,2.162423 2.32451,4.306693 3.65282,6.365523 4.13546,1.61937 9.07332,3.31092 14.85646,4.57453 8.15708,1.57083 17.5997,2.35324 26.59939,3.06814 7.67555,0.37241 15.09702,0.0667 22.10071,-0.12426 4.66912,-0.12731 9.17784,-0.20815 13.56166,-0.0253 2.1919,0.0914 4.35207,0.24816 6.48785,0.49489 6.40734,0.74018 12.65412,2.29588 18.36764,5.39944 2.69068,1.1238 5.25116,2.58942 7.71986,4.22482 5.33007,3.27952 10.50846,7.21579 15.86261,10.47918 7.18266,4.62237 14.74142,8.06794 22.23343,10.27986 M 3.7863902,31.61767 c 15.2142658,-1.463736 33.1191958,1.912884 49.5581148,10.714272 10.959278,5.867592 21.188919,14.124944 29.715397,23.996873 3.287663,3.535817 6.160763,7.467454 8.497722,11.698162 3.56307,6.262241 6.225036,12.955786 9.540026,19.345806 1.105,2.130006 2.29954,4.242467 3.61009,6.272187 4.17777,1.42967 9.15976,2.96414 14.97275,4.12211 8.21803,1.42252 17.70876,2.16694 26.74793,2.94246 7.64534,0.415 15.03403,0.21256 21.99524,0.15315 4.64081,-0.0396 9.11612,-0.02 13.4567,0.26686 2.17029,0.14345 4.30636,0.35311 6.41512,0.65237 6.32627,0.89779 12.46387,2.60752 18.04608,5.82536 2.62235,1.1591 5.11425,2.65031 7.51273,4.30645 5.21028,3.32148 10.27362,7.27918 15.50724,10.58502 7.02837,4.69458 14.42109,8.24913 21.74914,10.60858 M 3.7492417,30.53028 C 18.817375,29.545844 36.480981,33.252321 52.71722,42.214936 c 10.824159,5.975078 20.938374,14.265654 29.400449,24.121453 3.206683,3.457745 6.012122,7.29858 8.298658,11.428876 3.523021,6.168424 6.173506,12.754584 9.455448,19.047353 1.093985,2.097589 2.274555,4.178232 3.567345,6.178852 4.22008,1.23996 9.24621,2.61735 15.08905,3.66969 8.27899,1.27422 17.81782,1.98064 26.89647,2.81678 7.61514,0.45759 14.97103,0.35843 21.88977,0.43057 4.61249,0.0481 9.0544,0.16806 13.35174,0.55903 2.14868,0.19548 4.26065,0.45805 6.34239,0.80985 6.24521,1.05541 12.27361,2.91915 17.72452,6.25128 2.55401,1.19441 4.97734,2.7112 7.30559,4.38809 5.0905,3.36343 10.0388,7.34255 15.15188,10.69086 6.87408,4.76678 14.10077,8.43031 21.26486,10.93729 M 3.7120933,29.442889 c 14.9220007,-0.505136 32.3442827,3.531198 48.3778417,12.655042 10.689039,6.082562 20.687828,14.406363 29.085502,24.246032 3.125703,3.379672 5.86348,7.129705 8.099593,11.159591 3.482972,6.074606 6.121976,12.553382 9.370867,18.748899 1.082964,2.065172 2.249573,4.114007 3.524613,6.085517 4.26239,1.05026 9.33264,2.27056 15.20534,3.21727 8.33995,1.12591 17.92687,1.79434 27.04501,2.6911 7.58493,0.50018 14.90804,0.50429 21.7843,0.70798 4.58418,0.1358 8.99267,0.35618 13.24679,0.85121 2.12705,0.24751 4.21493,0.563 6.26964,0.96734 6.16416,1.21301 12.08337,3.23078 17.40297,6.6772 2.48568,1.22971 4.84043,2.77208 7.09846,4.46972 4.97071,3.40537 9.80397,7.40593 14.79651,10.79669 6.7198,4.83899 13.78044,8.61149 20.78058,11.26601 M 3.6749449,28.355499 c 14.7758691,-0.02584 31.9568261,4.340355 47.7877051,13.625427 10.553919,6.190047 20.437282,14.547072 28.770554,24.37061 3.044724,3.301601 5.714839,6.960832 7.900529,10.890306 3.442923,5.980789 6.070445,12.35218 9.286287,18.450446 1.071947,2.032755 2.224599,4.049776 3.48187,5.992172 4.30471,0.86057 9.41909,1.92378 15.32164,2.76486 8.4009,0.9776 18.03593,1.60804 27.19355,2.56541 7.55472,0.54278 14.84504,0.65017 21.67884,0.98541 4.55586,0.22349 8.93094,0.54428 13.14182,1.14338 2.10544,0.29954 4.16921,0.66795 6.19691,1.12482 6.08309,1.37062 11.89311,3.54241 17.08141,7.10312 2.41734,1.26502 4.70352,2.83298 6.89132,4.55135 4.85093,3.44733 9.56914,7.46932 14.44115,10.90253 6.56551,4.91119 13.46011,8.79268 20.2963,11.59473 M 3.6377964,27.268109 c 14.6297366,0.453464 31.5693696,5.149512 47.1975676,14.595811 10.4188,6.297533 20.186737,14.687782 28.455608,24.49519 2.963744,3.223528 5.566196,6.791957 7.701464,10.62102 3.402874,5.886971 6.018915,12.150979 9.201706,18.151993 1.060931,2.000338 2.199622,3.985546 3.439137,5.898837 4.347021,0.67087 9.505531,1.577 15.437931,2.31244 8.46186,0.82929 18.14499,1.42174 27.34209,2.43973 7.52452,0.58537 14.78205,0.79604 21.57337,1.26282 4.52754,0.3112 8.86922,0.7324 13.03687,1.43556 2.08382,0.35158 4.12349,0.77289 6.12417,1.2823 6.00203,1.52824 11.70286,3.85405 16.75985,7.52904 2.34901,1.30033 4.56661,2.89387 6.68419,4.63299 4.73114,3.48928 9.33431,7.53269 14.08578,11.00836 6.41122,4.9834 13.13978,8.97387 19.81201,11.92345 M 3.600648,26.180719 c 14.483604,0.932764 31.181912,5.958669 46.607431,15.566196 10.28368,6.405017 19.936191,14.82849 28.14066,24.619769 2.882765,3.145456 5.417555,6.623082 7.5024,10.351735 3.362825,5.793153 5.967385,11.949777 9.117126,17.853539 1.049914,1.967921 2.174644,3.921316 3.396399,5.805502 4.389336,0.48116 9.591966,1.23021 15.554226,1.86002 8.52282,0.68099 18.25404,1.23544 27.49063,2.31405 7.49431,0.62795 14.71905,0.9419 21.4679,1.54024 4.49923,0.39889 8.8075,0.9205 12.93191,1.72772 2.06221,0.40362 4.07778,0.87785 6.05144,1.4398 5.92097,1.68584 11.51261,4.16567 16.4383,7.95495 2.28067,1.33563 4.42969,2.95476 6.47704,4.71463 4.61136,3.53123 9.09949,7.59607 13.73042,11.11419 6.25693,5.05561 12.81945,9.15506 19.32773,12.25217 M 3.5634995,25.093329 c 14.3374715,1.412064 30.7944555,6.767826 46.0172945,16.53658 10.14856,6.512503 19.685646,14.9692 27.825713,24.744349 2.801785,3.067383 5.268913,6.454208 7.303335,10.082449 3.322776,5.699336 5.915855,11.748575 9.032545,17.555087 1.038897,1.935503 2.149667,3.857084 3.353662,5.712165 4.431651,0.291461 9.678411,0.883421 15.670521,1.407601 8.58377,0.53268 18.3631,1.04914 27.63917,2.18837 7.46411,0.67054 14.65606,1.08777 21.36243,1.81766 4.47092,0.48659 8.74577,1.1086 12.82695,2.01989 2.04059,0.45565 4.03207,0.9828 5.9787,1.59728 5.83991,1.84345 11.32236,4.47731 16.11675,8.38087 2.21233,1.37094 4.29278,3.01565 6.26991,4.79626 4.49157,3.57319 8.86465,7.65945 13.37505,11.22003 6.10265,5.12781 12.49913,9.33624 18.84345,12.58089 M 3.5263511,24.005938 c 14.1913399,1.891365 30.4069989,7.576984 45.4271579,17.506966 10.01344,6.619988 19.4351,15.109909 27.510765,24.868928 2.720806,2.989311 5.120272,6.285333 7.104271,9.813164 3.282727,5.605518 5.864324,11.547373 8.947965,17.256633 1.02788,1.903086 2.124688,3.792854 3.310924,5.618829 4.473966,0.101761 9.764856,0.536636 15.786816,0.955182 8.64473,0.38437 18.47216,0.86284 27.78771,2.06268 7.4339,0.71314 14.59306,1.23364 21.25696,2.09508 4.4426,0.5743 8.68405,1.29672 12.722,2.31207 2.01897,0.50768 3.98635,1.08774 5.90596,1.75477 5.75885,2.00106 11.13211,4.78893 15.79519,8.80679 2.144,1.40624 4.15587,3.07653 6.06277,4.87789 4.37179,3.61513 8.62983,7.72283 13.01969,11.32586 5.94836,5.20002 12.1788,9.51743 18.35917,12.90961 M 3.4892026,22.918548 c 14.0452074,2.370665 30.0195424,8.386141 44.8370214,18.477351 9.87832,6.727473 19.184554,15.250618 27.195818,24.993507 2.639826,2.911238 4.97163,6.116459 6.905206,9.543878 3.242678,5.511701 5.812794,11.346171 8.863384,16.95818 1.016864,1.870669 2.099711,3.728624 3.268188,5.525493 4.516277,-0.08794 9.85129,0.189849 15.90311,0.502758 8.70569,0.236068 18.58121,0.676549 27.93625,1.937005 7.40369,0.75573 14.53007,1.37951 21.1515,2.3725 4.41428,0.66199 8.62232,1.48482 12.61703,2.60424 1.99736,0.55971 3.94063,1.19269 5.83323,1.91225 5.67779,2.15867 10.94185,5.10057 15.47363,9.23271 2.07566,1.44155 4.01896,3.13742 5.85564,4.95953 4.252,3.65708 8.395,7.78621 12.66432,11.4317 5.79407,5.27222 11.85847,9.69861 17.87488,13.23832 M 3.4520542,21.831158 c 13.8990748,2.849965 29.6320848,9.195298 44.2468848,19.447735 9.7432,6.834958 18.934008,15.391328 26.88087,25.118086 2.558847,2.833167 4.822988,5.947585 6.706142,9.274593 3.20263,5.417883 5.761264,11.14497 8.778804,16.659727 1.005847,1.838252 2.074733,3.664394 3.22545,5.432156 4.558591,-0.277641 9.937735,-0.156937 16.019405,0.05034 8.76664,0.08776 18.69027,0.490251 28.08479,1.811327 7.37349,0.798319 14.46707,1.525369 21.04603,2.649909 4.38597,0.7497 8.56059,1.67293 12.51208,2.89642 1.97574,0.61174 3.89491,1.29764 5.76049,2.06973 5.59672,2.31628 10.7516,5.4122 15.15207,9.65863 2.00733,1.47685 3.88205,3.19831 5.6485,5.04116 4.13222,3.69904 8.16017,7.84959 12.30896,11.53754 5.63978,5.34442 11.53814,9.8798 17.3906,13.56704 M 3.4149058,20.743768 c 13.7529432,3.329265 29.2446282,10.004455 43.6567482,20.41812 9.60808,6.942443 18.683462,15.532037 26.565923,25.242665 2.477866,2.755094 4.674346,5.77871 6.507077,9.005308 3.162581,5.324065 5.709734,10.943767 8.694223,16.361273 0.99483,1.805835 2.049756,3.600164 3.182713,5.33882 4.600905,-0.467343 10.02417,-0.503723 16.1357,-0.402081 8.8276,-0.06055 18.79933,0.303953 28.23333,1.685645 7.34328,0.840909 14.40408,1.671242 20.94056,2.927332 4.35765,0.83739 8.49887,1.86104 12.40712,3.18859 1.95412,0.66378 3.8492,1.40259 5.68775,2.22722 5.51567,2.47388 10.56135,5.72383 14.83053,10.08454 1.93898,1.51216 3.74513,3.2592 5.44136,5.1228 4.01244,3.74099 7.92534,7.91297 11.95359,11.64337 5.4855,5.41663 11.21781,10.06098 16.90632,13.89576 M 3.3777573,19.656377 C 16.984568,23.464943 32.234929,30.46999 46.444369,41.044883 c 9.47296,7.049928 18.432917,15.672746 26.250975,25.367244 2.396887,2.677022 4.525705,5.609836 6.308013,8.736022 3.122532,5.230248 5.658203,10.742566 8.609643,16.06282 0.983813,1.773418 2.024777,3.535934 3.139975,5.245483 4.643219,-0.657043 10.110615,-0.850509 16.251995,-0.8545 8.88856,-0.208851 18.90838,0.117655 28.38187,1.559964 7.31307,0.8835 14.34108,1.817109 20.83509,3.204754 4.32934,0.92509 8.43715,2.04914 12.30216,3.48076 1.93251,0.71581 3.80349,1.50753 5.61502,2.3847 5.43461,2.6315 10.3711,6.03547 14.50897,10.51047 1.87065,1.54746 3.60822,3.32008 5.23422,5.20443 3.89266,3.78294 7.69052,7.97634 11.59823,11.7492 5.33121,5.48884 10.89749,10.24217 16.42204,14.22448 M 3.3406089,18.568987 c 13.4606781,4.287866 28.4697151,11.62277 42.4764751,22.35889 9.33784,7.157414 18.182371,15.813455 25.936028,25.491824 2.315907,2.598949 4.377063,5.440961 6.108948,8.466736 3.082483,5.136431 5.606673,10.541365 8.525063,15.764368 0.972796,1.741001 1.999799,3.471703 3.097237,5.152146 4.685534,-0.846745 10.197058,-1.197295 16.36829,-1.306919 8.94951,-0.357158 19.01744,-0.06865 28.53041,1.434282 7.28287,0.926091 14.27809,1.962977 20.72962,3.482168 4.30103,1.012798 8.37543,2.237258 12.19721,3.772938 1.91089,0.76784 3.75776,1.61248 5.54228,2.54218 5.35354,2.78911 10.18085,6.3471 14.18741,10.93639 1.80232,1.58277 3.47131,3.38097 5.02709,5.28606 3.77287,3.82489 7.45568,8.03973 11.24286,11.85504 5.17692,5.56105 10.57716,10.42336 15.93775,14.5532 M 3.3034604,17.481597 c 13.3145466,4.767166 28.0822586,12.431927 41.8863386,23.329275 9.20272,7.264898 17.931825,15.954164 25.62108,25.616403 2.234928,2.520877 4.228421,5.272087 5.909884,8.197451 3.042434,5.042613 5.555143,10.340162 8.440482,15.465914 0.96178,1.708584 1.974822,3.407473 3.0545,5.05881 4.727848,-1.036446 10.283499,-1.544082 16.484585,-1.759339 9.01047,-0.505465 19.1265,-0.254943 28.67895,1.308601 7.25266,0.968682 14.21509,2.108845 20.62416,3.759586 4.2727,1.100494 8.31369,2.425362 12.09224,4.065112 1.88927,0.81987 3.71205,1.71743 5.46955,2.69967 5.27248,2.94671 9.99059,6.65873 13.86585,11.3623 1.73398,1.61808 3.3344,3.44186 4.81995,5.3677 3.65309,3.86684 7.22086,8.1031 10.8875,11.96087 5.02263,5.63325 10.25683,10.60455 15.45347,14.88192 M 3.266312,16.394207 c 13.168414,5.246466 27.694801,13.241084 41.296202,24.29966 9.0676,7.372383 17.681279,16.094873 25.306133,25.740982 2.153948,2.442804 4.079779,5.103212 5.710819,7.928165 3.002385,4.948796 5.503613,10.138961 8.355902,15.167461 0.950763,1.676167 1.949844,3.343242 3.011763,4.965473 4.770161,-1.226147 10.36994,-1.890867 16.600879,-2.211758 9.07143,-0.653771 19.23555,-0.441241 28.82749,1.182919 7.22245,1.011273 14.1521,2.254713 20.51869,4.037005 4.24439,1.188194 8.25197,2.613466 11.98728,4.357286 1.86766,0.8719 3.66634,1.82237 5.39681,2.85715 5.19143,3.10433 9.80035,6.97036 13.5443,11.78822 1.66565,1.65338 3.19749,3.50275 4.61282,5.44934 3.5333,3.90879 6.98603,8.16648 10.53213,12.0667 4.86835,5.70546 9.9365,10.78574 14.96919,15.21064 M 3.2291636,15.306817 c 13.0222814,5.725765 27.3073444,14.050241 40.7060654,25.270044 8.93248,7.479869 17.430733,16.235583 24.991185,25.865561 2.072969,2.364732 3.931138,4.934338 5.511755,7.658881 2.962336,4.854977 5.452083,9.937758 8.271321,14.869007 0.939746,1.64375 1.924867,3.279012 2.969026,4.872137 4.812475,-1.415848 10.456382,-2.237654 16.717184,-2.664178 9.13237,-0.802078 19.3446,-0.627539 28.97602,1.057238 7.19225,1.053864 14.0891,2.400581 20.41322,4.314423 4.21608,1.275894 8.19025,2.801577 11.88233,4.64945 1.84604,0.92394 3.62062,1.92733 5.32407,3.01464 5.11037,3.26194 9.61009,7.282 13.22274,12.21414 1.59731,1.68869 3.06058,3.56364 4.40568,5.53097 3.41352,3.95075 6.7512,8.22987 10.17677,12.17254 4.71406,5.77767 9.61617,10.96692 14.48491,15.53936 M 3.1920151,14.219426 c 12.8761499,6.205066 26.9198879,14.859399 40.1159289,26.24043 8.79736,7.587354 17.180187,16.376292 24.676238,25.99014 1.991989,2.28666 3.782496,4.765464 5.31269,7.389595 2.922287,4.76116 5.400552,9.736557 8.186741,14.570554 0.928729,1.611333 1.899888,3.214782 2.926288,4.7788 4.854789,-1.605549 10.542823,-2.58444 16.833479,-3.116597 9.19333,-0.950384 19.45366,-0.813838 29.12456,0.931557 7.16204,1.096455 14.02611,2.546449 20.30775,4.59184 4.18777,1.363595 8.12853,2.989685 11.77737,4.941625 1.82443,0.97597 3.57491,2.03228 5.25134,3.17213 5.0293,3.41954 9.41984,7.59362 12.90119,12.64006 1.52897,1.72399 2.92366,3.62452 4.19854,5.6126 3.29373,3.9927 6.51637,8.29324 9.8214,12.27838 4.55977,5.84986 9.29585,11.1481 14.00063,15.86807 M 3.1548667,13.132036 C 15.884884,19.816402 29.687298,28.800592 42.680659,40.34285 c 8.66224,7.694839 16.929642,16.517002 24.36129,26.11472 1.91101,2.208587 3.633855,4.596589 5.113626,7.120309 2.882239,4.667343 5.349022,9.535356 8.10216,14.272101 0.917713,1.578916 1.874911,3.150552 2.883551,4.685464 4.897103,-1.79525 10.629265,-2.931226 16.949774,-3.569017 9.25429,-1.09869 19.56271,-1.000136 29.2731,0.805876 7.13183,1.139045 13.96311,2.692316 20.20228,4.869258 4.15945,1.451295 8.0668,3.177793 11.67242,5.233801 1.8028,1.028008 3.52918,2.137228 5.1786,3.329608 4.94824,3.57716 9.22958,7.90526 12.57963,13.06598 1.46063,1.7593 2.78675,3.68541 3.9914,5.69424 3.17395,4.03464 6.28155,8.35662 9.46604,12.38421 4.40548,5.92207 8.97552,11.32929 13.51634,16.19679 M 3.1177182,12.044646 c 12.5838848,7.163666 26.1449738,16.477713 38.9356558,28.181199 8.52712,7.802324 16.679096,16.65771 24.046343,26.239299 1.83003,2.130515 3.485212,4.427715 4.914561,6.851024 2.84219,4.573525 5.297492,9.334153 8.01758,13.973647 0.906696,1.546499 1.849933,3.086322 2.840813,4.592127 4.939417,-1.984951 10.715706,-3.278012 17.066064,-4.021435 9.315245,-1.246998 19.671775,-1.186435 29.421645,0.680194 7.10163,1.181636 13.90012,2.838184 20.09682,5.146676 4.13113,1.538995 8.00507,3.365901 11.56745,5.525974 1.78119,1.080039 3.48347,2.242169 5.10586,3.487089 4.86719,3.73477 9.03934,8.21689 12.25808,13.4919 1.3923,1.7946 2.64984,3.74631 3.78427,5.77587 3.05416,4.0766 6.04671,8.42 9.11067,12.49005 4.2512,5.99428 8.65519,11.51048 13.03206,16.52551 M 3.0805698,10.957256 c 12.4377532,7.642966 25.7575172,17.28687 38.3455192,29.151584 8.392,7.909809 16.42855,16.798419 23.731395,26.363878 1.749051,2.052442 3.336571,4.25884 4.715497,6.581738 2.802141,4.479708 5.245962,9.132952 7.932999,13.675195 0.895679,1.514081 1.824956,3.022091 2.798076,4.49879 4.981731,-2.174652 10.802148,-3.624798 17.182359,-4.473855 9.376205,-1.395304 19.780835,-1.372733 29.570185,0.554512 7.07142,1.224228 13.83712,2.984053 19.99135,5.424095 4.10282,1.626695 7.94335,3.554009 11.46249,5.818147 1.75958,1.132069 3.43776,2.34712 5.03313,3.64458 4.78612,3.89237 8.84909,8.52852 11.93652,13.91781 1.32396,1.82991 2.51293,3.8072 3.57713,5.85751 2.93438,4.11855 5.81189,8.48338 8.75531,12.59588 4.09691,6.06648 8.33486,11.69166 12.54778,16.85423 M 3.0434214,9.8698655 C 15.335042,17.992132 28.413482,27.965893 40.798803,39.991834 c 8.256882,8.017295 16.178005,16.939129 23.416449,26.488458 1.66807,1.97437 3.187929,4.089966 4.516432,6.312452 2.762092,4.38589 5.194431,8.93175 7.848419,13.376742 0.884662,1.481664 1.799977,2.957861 2.755339,4.405454 5.024044,-2.364353 10.888588,-3.971585 17.298653,-4.926275 9.437165,-1.543611 19.889885,-1.559031 29.718735,0.428831 7.0412,1.266819 13.77412,3.12992 19.88587,5.701513 4.0745,1.714395 7.88162,3.742116 11.35754,6.11032 1.73795,1.184102 3.39204,2.452071 4.96039,3.802061 4.70506,4.04999 8.65883,8.84015 11.61496,14.34373 1.25563,1.86522 2.37602,3.86809 3.36999,5.93915 2.81461,4.1605 5.57707,8.54676 8.39995,12.70171 3.94262,6.13869 8.01453,11.87285 12.0635,17.18295 M 3.0062729,8.7824752 C 15.151761,17.384042 27.988877,27.68766 40.171518,39.874829 c 8.121762,8.124779 15.927459,17.079838 23.101501,26.613037 1.587091,1.896297 3.039288,3.921091 4.317368,6.043167 2.722043,4.292072 5.142901,8.730548 7.763838,13.078288 0.873646,1.449247 1.775,2.89363 2.712602,4.312117 5.066358,-2.554054 10.97503,-4.318371 17.414949,-5.378694 9.498114,-1.691917 19.998944,-1.74533 29.867274,0.30315 7.011,1.309409 13.71112,3.275788 19.7804,5.978931 4.04619,1.802095 7.8199,3.930224 11.25258,6.402493 1.71634,1.236134 3.34632,2.557016 4.88766,3.959552 4.624,4.20759 8.46858,9.15178 11.29341,14.76965 1.18729,1.90052 2.2391,3.92897 3.16285,6.02077 2.69482,4.20245 5.34223,8.61014 8.04458,12.80755 3.78834,6.2109 7.69421,12.05404 11.57921,17.51167 M 2.9691245,7.695085 C 14.96848,16.775952 27.564272,27.409427 39.544233,39.757824 c 7.986642,8.232264 15.676914,17.220547 22.786554,26.737615 1.506111,1.818226 2.890646,3.752217 4.118303,5.773882 2.681994,4.198255 5.091371,8.529346 7.679258,12.779835 0.862629,1.41683 1.750022,2.8294 2.669864,4.218781 5.108672,-2.743755 11.061471,-4.665157 17.531244,-5.831114 9.559074,-1.840223 20.108004,-1.931628 30.015814,0.177469 6.98079,1.352 13.64813,3.421656 19.67493,6.256349 4.01788,1.889795 7.75818,4.118332 11.14763,6.694666 1.69472,1.288167 3.3006,2.661965 4.81492,4.117033 4.54293,4.3652 8.27832,9.46342 10.97185,15.19557 1.11895,1.93582 2.10219,3.98986 2.95571,6.10241 2.57504,4.2444 5.10741,8.67352 7.68922,12.91338 3.63405,6.2831 7.37388,12.23523 11.09493,17.84039 M 2.931976,6.6076948 C 14.7852,16.167862 27.139666,27.131194 38.916948,39.640818 c 7.851522,8.33975 15.426368,17.361257 22.471606,26.862195 1.425132,1.740153 2.742004,3.583343 3.919238,5.504597 2.641946,4.104437 5.039842,8.328144 7.594678,12.481381 0.851613,1.384413 1.725045,2.76517 2.627127,4.125444 5.150986,-2.933456 11.147913,-5.011943 17.647539,-6.283532 9.620034,-1.988531 20.217054,-2.117927 30.164354,0.05179 6.95058,1.394591 13.58513,3.567523 19.56947,6.533767 3.98955,1.977495 7.69645,4.30644 11.04266,6.986839 1.67311,1.3402 3.25489,2.766913 4.74218,4.274514 4.46188,4.52282 8.08808,9.77505 10.6503,15.62149 1.05062,1.97113 1.96528,4.05075 2.74858,6.18404 2.45525,4.28636 4.87258,8.7369 7.33385,13.01923 3.47976,6.3553 7.05355,12.41641 10.61065,18.1691 M 2.8948276,5.5203046 C 14.601919,15.559772 26.715061,26.852961 38.289663,39.523813 c 7.716402,8.447234 15.175822,17.501966 22.156659,26.986774 1.344152,1.662081 2.593362,3.414468 3.720173,5.235311 2.601897,4.01062 4.988311,8.126943 7.510098,12.182928 0.840595,1.351996 1.700066,2.70094 2.584389,4.032108 5.1933,-3.123157 11.234354,-5.358729 17.763834,-6.735952 9.680984,-2.136837 20.326114,-2.304225 30.312894,-0.07389 6.92038,1.437182 13.52214,3.713392 19.464,6.811186 3.96124,2.065195 7.63472,4.494548 10.9377,7.279012 1.65149,1.392232 3.20918,2.871861 4.66945,4.432001 4.38082,4.680424 7.89783,10.086684 10.32874,16.047404 0.98228,2.00644 1.82837,4.11164 2.54144,6.26568 2.33547,4.32831 4.63775,8.80028 6.97849,13.12506 3.32547,6.42751 6.73322,12.59759 10.12637,18.49782 M 2.8576791,4.4329143 C 14.418638,14.951682 26.290456,26.574728 37.662378,39.406808 c 7.581282,8.554719 14.925276,17.642674 21.841711,27.111353 1.263173,1.584008 2.444721,3.245594 3.521109,4.966025 2.561849,3.916802 4.936781,7.925741 7.425517,11.884476 0.829579,1.319578 1.675089,2.636709 2.541652,3.938771 5.235614,-3.312859 11.320796,-5.705516 17.880129,-7.188372 9.741944,-2.285144 20.435164,-2.490524 30.461434,-0.199576 6.89017,1.479773 13.45914,3.85926 19.35853,7.088604 3.93293,2.152895 7.573,4.682655 10.83275,7.571185 1.62987,1.444265 3.16346,2.976809 4.59671,4.589486 4.29975,4.83803 7.70757,10.39831 10.00718,16.47332 0.91395,2.04175 1.69146,4.17253 2.33431,6.34732 2.21568,4.37026 4.40292,8.86366 6.62312,13.23089 3.17119,6.49972 6.41289,12.77878 9.64208,18.82654 M 2.8205307,3.3455241 C 14.235358,14.343592 25.865851,26.296495 37.035093,39.289802 c 7.446162,8.662205 14.67473,17.783384 21.526764,27.235933 1.182193,1.505936 2.296079,3.076719 3.322044,4.69674 2.5218,3.822984 4.885251,7.724539 7.340937,11.586022 0.818562,1.287161 1.650111,2.572479 2.498915,3.845434 5.277927,-3.502559 11.407236,-6.052301 17.996423,-7.640791 9.802899,-2.43345 20.544224,-2.676822 30.609974,-0.325257 6.85996,1.522364 13.39615,4.005127 19.25306,7.366021 3.90461,2.240596 7.51128,4.870764 10.72779,7.863359 1.60826,1.496297 3.11774,3.081757 4.52398,4.746971 4.21869,4.995636 7.51732,10.709946 9.68562,16.899246 0.84561,2.07705 1.55455,4.23341 2.12717,6.42894 2.0959,4.41221 4.1681,8.92704 6.26776,13.33673 3.0169,6.57192 6.09257,12.95997 9.1578,19.15526 M 2.7833823,2.2581339 C 14.052077,13.735502 25.441245,26.018262 36.407808,39.172797 c 7.311042,8.76969 14.424184,17.924093 21.211816,27.360512 1.101214,1.427863 2.147437,2.907844 3.12298,4.427454 2.481751,3.729167 4.833721,7.523337 7.256356,11.287569 0.807546,1.254744 1.625134,2.508249 2.456178,3.752098 5.320241,-3.692261 11.493678,-6.399088 18.112718,-8.093211 9.863856,-2.581757 20.653284,-2.86312 30.758514,-0.450938 6.82976,1.564954 13.33315,4.150995 19.14759,7.643439 3.8763,2.328296 7.44955,5.058872 10.62283,8.155532 1.58665,1.54833 3.07203,3.186705 4.45124,4.904455 4.13764,5.153253 7.32707,11.021573 9.36408,17.325163 0.77727,2.11235 1.41763,4.2943 1.92003,6.51058 1.97611,4.45416 3.93326,8.99042 5.91239,13.44256 2.86261,6.64413 5.77224,13.14116 8.67352,19.48398 M 2.7462338,1.1707437 C 13.868796,13.127411 25.01664,25.740029 35.780523,39.055791 c 7.175922,8.877175 14.173639,18.064803 20.896869,27.485091 1.020234,1.349792 1.998795,2.738971 2.923915,4.158169 2.441702,3.63535 4.78219,7.322136 7.171776,10.989116 0.796528,1.222327 1.600155,2.444019 2.41344,3.658761 5.362555,-3.881961 11.580119,-6.745874 18.229013,-8.545629 9.924813,-2.730064 20.762334,-3.049419 30.907054,-0.57662 6.79955,1.607545 13.27016,4.296863 19.04213,7.920857 3.84798,2.415996 7.38782,5.24698 10.51787,8.447705 1.56502,1.600362 3.02631,3.291653 4.3785,5.06194 4.05657,5.310859 7.13682,11.333209 9.04252,17.751079 0.70894,2.14766 1.28072,4.35519 1.71289,6.59222 1.85633,4.49611 3.69844,9.05379 5.55703,13.54839 2.70832,6.71634 5.45191,13.32234 8.18924,19.8127 M 2.7090854,0.08335345 C 13.685516,12.519321 24.592035,25.461796 35.153238,38.938786 c 7.040802,8.98466 13.923093,18.205512 20.581921,27.60967 0.939255,1.271719 1.850154,2.570096 2.724851,3.888884 2.401653,3.541532 4.73066,7.120934 7.087195,10.690662 0.785512,1.18991 1.575178,2.379788 2.370703,3.565425 5.404869,-4.071663 11.666561,-7.09266 18.345308,-8.998049 9.985769,-2.87837 20.871394,-3.235717 31.055594,-0.702302 6.76934,1.650137 13.20716,4.442731 18.93666,8.198276 3.81966,2.503696 7.3261,5.435087 10.41291,8.739878 1.54341,1.652395 2.9806,3.396601 4.30577,5.219424 3.97551,5.468466 6.94656,11.644836 8.72096,18.176996 0.6406,2.18297 1.14381,4.41608 1.50576,6.67385 1.73654,4.53807 3.46361,9.11718 5.20166,13.65423 2.55404,6.78854 5.13158,13.50353 7.70495,20.14142 M 2.6719369,-1.0040368 C 13.502235,11.911231 24.16743,25.183563 34.525953,38.821781 41.431635,47.913926 48.1985,57.168002 54.792927,66.55603 c 0.858274,1.193647 1.701512,2.401222 2.525786,3.619598 2.361604,3.447715 4.67913,6.919732 7.002615,10.392209 0.774495,1.157493 1.5502,2.315558 2.327965,3.472088 5.447183,-4.261363 11.753002,-7.439446 18.461603,-9.450468 10.046726,-3.026677 20.980454,-3.422016 31.204134,-0.827983 6.73914,1.692728 13.14417,4.588599 18.83119,8.475694 3.79135,2.591397 7.26438,5.623195 10.30796,9.032051 1.52179,1.704427 2.93487,3.501549 4.23303,5.376909 3.89445,5.626082 6.75631,11.956472 8.3994,18.602912 0.57227,2.21828 1.0069,4.47697 1.29862,6.75549 1.61676,4.58002 3.22878,9.18055 4.8463,13.76007 2.39975,6.86074 4.81125,13.68471 7.22067,20.47013 M 2.6347885,-2.091427 C 13.318954,11.303141 23.742824,24.90533 33.898668,38.704775 c 6.770562,9.199631 13.422001,18.48693 19.952026,27.858829 0.777295,1.115574 1.552871,2.232347 2.326722,3.350313 2.321555,3.353896 4.6276,6.71853 6.918034,10.093756 0.763479,1.125075 1.525223,2.251327 2.285228,3.378751 5.489497,-4.451064 11.839444,-7.786232 18.577898,-9.902888 10.107682,-3.174983 21.089504,-3.608314 31.352674,-0.953664 6.70893,1.735318 13.08117,4.734467 18.72572,8.753112 3.76304,2.679097 7.20265,5.811303 10.203,9.324224 1.50017,1.75646 2.88916,3.606498 4.16029,5.534394 3.81339,5.783688 6.56607,12.268098 8.07785,19.028838 0.50393,2.25357 0.86999,4.53785 1.09149,6.83712 1.49698,4.62196 2.99395,9.24393 4.49093,13.8659 2.24546,6.93295 4.49093,13.8659 6.73639,20.79885"
       inkscape:connector-curvature="0"
       sodipodi:nodetypes="cccscccscccc" />
    <path
       id="path835-6"
       style="fill:none;stroke:url(#radialGradient868);stroke-width:0.26458332px;stroke-linecap:butt;stroke-linejoin:miter;stroke-opacity:1"
       inkscape:path-effect="#path-effect837-3;#path-effect860"
       inkscape:original-d="m 170.16144,21.632642 c 10.77578,5.447497 30.93095,4.306603 41.95535,8.315477 11.37713,4.137136 0.60391,7.059906 10.20536,14.741071 4.97221,3.977761 8.74205,9.733782 13.98512,13.229166 2.30698,1.537989 4.01335,0.530868 6.4256,1.133928 10.36392,2.590982 9.67177,-1.189519 21.54462,-4.157737 10.12598,-2.531494 30.61609,-0.151045 30.61609,-12.095239 0,-2.736909 -0.48988,-5.403562 -2.26785,-7.181546 -1.17639,-1.176396 -1.55496,-5.068382 -3.02382,-6.04762 -12.25182,-8.167879 -20.07921,-7.384257 -34.01785,-3.401785 -11.44244,3.269267 -15.74586,10.095118 -13.22917,22.678572 3.51465,17.573244 16.36606,21.903255 24.94643,34.773808 0.47662,0.714944 6.59765,4.793838 7.18155,5.669644 1.79182,2.687764 0.50698,5.76639 3.40178,7.9375 M 148.3422,25.551384 c 10.77578,5.447497 4.8506,4.306603 15.875,8.315476 11.37713,4.137137 42.55926,12.72955 52.16071,20.410714 4.97221,3.977762 1.18253,3.308188 6.4256,6.803572 2.30698,1.537988 11.57287,6.956462 13.98512,7.559522 10.36392,2.590983 19.12118,7.125957 30.99404,4.157739 10.12597,-2.531493 21.16667,-8.466521 21.16667,-20.410715 0,-2.736908 -0.48988,-5.403561 -2.26785,-7.181545 -1.17639,-1.176396 -1.55496,-5.068382 -3.02382,-6.04762 -12.25182,-8.167879 -20.0792,-7.384257 -34.01785,-3.401786 -11.44244,3.269268 -10.07621,-5.779881 -7.55952,6.803572 3.51465,17.573244 13.34224,41.935993 21.92261,54.806545 0.47662,0.714944 2.06195,0.636101 2.64584,1.511906 1.79183,2.687766 12.22424,21.641386 15.11904,23.812496"
       d="m 162.22217,20.471933 c 6.91698,-3.19957 14.85426,-4.146954 22.32999,-2.665278 0.74757,0.148168 1.49015,0.32055 2.22642,0.516419 6.62647,1.762815 12.74259,5.428002 17.39894,10.464336 0.81269,0.879008 1.57906,1.794647 2.31103,2.737385 2.92785,3.770953 5.3052,7.975501 7.89433,12.003686 0.53004,0.824633 1.07082,1.644247 1.62979,2.450802 1.30427,1.881962 2.70756,3.692827 4.30443,5.330476 0.9125,0.935799 1.89215,1.815002 2.93562,2.605006 1.56522,1.185006 3.27405,2.169313 5.11528,2.842882 1.02616,0.375392 2.08628,0.651598 3.163,0.837593 1.07672,0.185996 2.17004,0.281782 3.2626,0.296335 4.39979,0.0586 8.65061,-1.170567 12.92247,-2.330882 2.84791,-0.773543 5.70517,-1.516483 8.62215,-1.826855 4.28171,-0.455582 8.62357,0.02893 12.92404,0.01104 1.84306,-0.0077 3.67852,-0.107607 5.49839,-0.413375 2.42649,-0.407691 4.82777,-1.203599 6.88401,-2.533759 0.51406,-0.33254 1.00656,-0.698471 1.47249,-1.100074 1.04835,-0.903607 1.952,-1.982222 2.61822,-3.194295 0.074,-0.134675 0.14511,-0.270997 0.21315,-0.40891 0.68034,-1.379131 1.04982,-2.918688 1.00579,-4.45587 -0.0724,-2.527361 -1.22718,-4.877243 -2.26785,-7.181546 -0.0929,-0.205639 -0.18507,-0.41173 -0.27704,-0.618018 -0.82773,-1.85659 -1.63683,-3.729052 -2.74678,-5.429602 -0.34744,-0.532312 -0.72344,-1.045182 -1.1251,-1.537102 -1.60664,-1.967676 -3.62374,-3.600137 -5.86508,-4.800781 -0.8405,-0.450242 -1.71184,-0.840326 -2.60555,-1.170857 -2.08531,-0.77124 -4.29237,-1.218248 -6.51337,-1.34871 -2.53829,-0.1491 -5.07461,0.1158 -7.53911,0.718631 -3.69675,0.904246 -7.23189,2.568836 -10.36964,4.737034 -1.86792,1.290747 -3.61563,2.763802 -5.18962,4.400168 -1.574,1.636367 -2.97427,3.436047 -4.14732,5.380044 -1.40767,2.332797 -2.48186,4.875518 -3.14327,7.516924 -0.44094,1.760938 -0.69842,3.565736 -0.74896,5.381436 -0.14538,5.223937 1.422,10.342195 4.00259,14.920344 1.10597,1.962064 2.39803,3.824925 3.82113,5.554384 3.79493,4.611893 8.47486,8.385377 13.39635,11.798928 1.23038,0.853387 2.47585,1.684279 3.72636,2.500152 2.30777,1.505651 4.67771,2.999542 6.56943,4.987863 0.21019,0.220925 0.41448,0.447954 0.61212,0.681781 1.88582,2.231066 3.08675,5.033244 3.40178,7.9375 M 161.06145,20.233762 c 6.71373,-2.674924 14.39158,-3.327096 21.66524,-1.799591 0.72736,0.15275 1.45034,0.327228 2.16771,0.52276 6.67688,1.842801 12.91631,5.332431 17.80988,10.105326 0.88391,0.840482 1.72499,1.715843 2.53372,2.618703 3.23492,3.611441 5.96499,7.670879 8.81156,11.678247 0.66332,0.873989 1.32557,1.758787 1.98949,2.650142 1.31241,1.842337 2.70551,3.629418 4.28128,5.25242 0.90044,0.92743 1.86413,1.801251 2.8909,2.588736 1.61488,1.248596 3.38702,2.279352 5.29261,3.004149 1.12213,0.433575 2.28379,0.761566 3.46123,0.99958 1.36278,0.303727 2.75334,0.500465 4.14827,0.581532 4.50523,0.134993 8.88122,-0.96981 13.27088,-2.100055 2.7738,-0.732031 5.55613,-1.447288 8.38824,-1.780143 4.20177,-0.502225 8.4435,-0.185939 12.60578,-0.388657 1.73665,-0.04695 3.46425,-0.181097 5.17499,-0.506312 2.3377,-0.493525 4.63413,-1.359964 6.58735,-2.729265 0.48831,-0.342325 0.95513,-0.716087 1.39577,-1.12319 1.02192,-1.003657 1.87428,-2.180709 2.46279,-3.475864 0.0656,-0.142399 0.12798,-0.28621 0.18716,-0.431389 0.5918,-1.451789 0.85576,-3.041542 0.74122,-4.626455 -0.13284,-2.474318 -1.25858,-4.786893 -2.30299,-7.044022 -0.0942,-0.202986 -0.18797,-0.406252 -0.28182,-0.609546 -0.87891,-1.880767 -1.78001,-3.748522 -2.97939,-5.423163 -0.35891,-0.513687 -0.74512,-1.007797 -1.15578,-1.480861 -1.64261,-1.892255 -3.67598,-3.448069 -5.91963,-4.580041 -0.84137,-0.424489 -1.71168,-0.789895 -2.60263,-1.096833 -2.24626,-0.725406 -4.60317,-1.069303 -6.9514,-1.064584 -2.50523,-0.06564 -5.00165,0.267304 -7.4214,0.92428 -3.51851,0.913266 -6.8832,2.533199 -9.87358,4.62531 -1.80737,1.270348 -3.49756,2.715129 -5.01904,4.317424 -1.5719,1.667887 -2.95716,3.505061 -4.10652,5.485347 -1.37923,2.376343 -2.41301,4.960698 -3.02828,7.635956 -0.41019,1.783505 -0.63484,3.60728 -0.65437,5.438783 -0.0864,5.081055 1.44443,10.058299 3.94074,14.52102 1.12589,2.02663 2.44775,3.946551 3.90939,5.729342 3.8977,4.75411 8.74647,8.634104 13.84808,12.096151 1.14124,0.789834 2.29635,1.55901 3.4561,2.314408 2.1759,1.413996 4.40891,2.817013 6.20219,4.675599 0.25575,0.240825 0.50432,0.490009 0.74489,0.747976 2.32267,2.481398 3.82724,5.74139 4.19444,9.137405 M 159.90072,19.995591 c 6.51049,-2.150278 13.92891,-2.507239 21.00049,-0.933905 0.70716,0.157334 1.41053,0.333907 2.10901,0.529102 6.72729,1.922788 13.09002,5.23686 18.22082,9.746317 0.95514,0.801954 1.87091,1.637039 2.7564,2.500021 3.542,3.451927 6.62479,7.366257 9.7288,11.352808 0.79659,0.923343 1.58031,1.873327 2.34918,2.849481 1.32056,1.802711 2.70347,3.56601 4.25814,5.174365 0.88838,0.91906 1.83612,1.787498 2.84617,2.572465 1.66455,1.312187 3.5,2.389391 5.46994,3.165417 1.21812,0.491758 2.48132,0.871534 3.75947,1.161566 1.64885,0.421457 3.33663,0.719147 5.03393,0.866729 4.61069,0.211383 9.11184,-0.769054 13.61931,-1.869228 2.69968,-0.69052 5.40707,-1.378093 8.15432,-1.733432 4.12184,-0.548867 8.26344,-0.400807 12.28752,-0.788357 1.63024,-0.08624 3.24997,-0.254586 4.85159,-0.599249 2.24892,-0.579358 4.4405,-1.51633 6.2907,-2.92477 0.46255,-0.35211 0.90368,-0.733705 1.31904,-1.146307 0.99548,-1.103707 1.79656,-2.379195 2.30735,-3.757433 0.0571,-0.150122 0.11085,-0.301423 0.16118,-0.453868 0.50325,-1.524447 0.6617,-3.164397 0.47664,-4.79704 -0.19329,-2.421276 -1.28996,-4.696543 -2.33812,-6.906497 -0.0955,-0.200335 -0.19088,-0.400775 -0.2866,-0.601076 -0.93009,-1.904944 -1.9232,-3.767991 -3.212,-5.416723 -0.37039,-0.495061 -0.7668,-0.970412 -1.18645,-1.424621 -1.67859,-1.816833 -3.72823,-3.296 -5.9742,-4.359299 -0.84223,-0.398737 -1.7115,-0.739465 -2.59971,-1.02281 -2.40719,-0.679573 -4.91396,-0.920358 -7.38943,-0.780458 -2.47217,0.01782 -4.92869,0.418808 -7.30367,1.12993 -3.34029,0.922285 -6.53453,2.497561 -9.37754,4.513584 -1.7468,1.24995 -3.37948,2.666457 -4.84844,4.23468 -1.56982,1.699408 -2.94007,3.574077 -4.06573,5.590651 -1.35079,2.41989 -2.34416,5.045879 -2.9133,7.754987 -0.37943,1.806073 -0.57124,3.648825 -0.55978,5.496132 -0.0274,4.938172 1.46686,9.774403 3.8789,14.121694 1.14581,2.091197 2.49747,4.068178 3.99765,5.904301 4.00048,4.896326 9.01808,8.882832 14.2998,12.393375 1.05212,0.726281 2.11687,1.43374 3.18584,2.128663 2.04404,1.322341 4.14013,2.634485 5.83496,4.363334 0.3013,0.260726 0.59415,0.532066 0.87766,0.814173 2.75953,2.731729 4.56773,6.449536 4.9871,10.33731 M 158.73999,19.757421 c 6.30725,-1.625632 13.46624,-1.687383 20.33575,-0.06822 0.68695,0.161916 1.37072,0.340584 2.0503,0.535443 6.77771,2.002774 13.26374,5.141288 18.63176,9.387307 1.02636,0.763428 2.01683,1.558236 2.97909,2.381339 3.84907,3.292415 7.28457,7.061635 10.64602,11.027369 0.92988,0.972698 1.83506,1.987867 2.70888,3.048821 1.3287,1.763086 2.70143,3.502601 4.23499,5.09631 0.87632,0.910691 1.80812,1.773745 2.80145,2.556194 1.71422,1.375778 3.61297,2.49943 5.64728,3.326684 1.3141,0.549941 2.67883,0.981502 4.0577,1.323553 1.93492,0.539187 3.91993,0.937829 5.9196,1.151927 4.71613,0.287772 9.34245,-0.568298 13.96772,-1.638402 2.62557,-0.649009 5.25803,-1.308898 7.92041,-1.68672 4.0419,-0.595511 8.08338,-0.615675 11.96926,-1.188058 1.52383,-0.125528 3.03569,-0.328076 4.52819,-0.692186 2.16013,-0.665192 4.24686,-1.672695 5.99404,-3.120276 0.43679,-0.361895 0.85225,-0.751321 1.24232,-1.169424 0.96904,-1.203755 1.71884,-2.577681 2.15192,-4.039001 0.0487,-0.157846 0.0937,-0.316636 0.13519,-0.476347 0.4147,-1.597104 0.46765,-3.287252 0.21206,-4.967624 -0.25375,-2.368234 -1.32135,-4.606194 -2.37326,-6.768973 -0.0968,-0.197684 -0.19378,-0.395298 -0.29137,-0.592605 -0.98128,-1.929121 -2.06638,-3.787461 -3.44462,-5.410284 -0.38186,-0.476436 -0.78848,-0.933027 -1.21712,-1.36838 -1.71456,-1.741411 -3.78047,-3.143931 -6.02875,-4.138558 -0.8431,-0.372985 -1.71134,-0.689035 -2.59679,-0.948786 -2.56814,-0.633741 -5.22477,-0.771414 -7.82746,-0.496332 -2.43912,0.101277 -4.85573,0.57031 -7.18596,1.335578 -3.16206,0.931305 -6.18584,2.461923 -8.88149,4.40186 -1.68623,1.229551 -3.2614,2.617785 -4.67784,4.151935 -1.56774,1.730929 -2.92297,3.643092 -4.02494,5.695955 -1.32236,2.463436 -2.27531,5.131059 -2.79831,7.874019 -0.34867,1.82864 -0.50766,3.690369 -0.4652,5.55348 0.0316,4.795289 1.4893,9.490507 3.81705,13.722369 1.16575,2.155762 2.5472,4.189805 4.08592,6.079258 4.10325,5.038543 9.2897,9.13156 14.75152,12.690599 0.963,0.662728 1.93739,1.30847 2.91558,1.942919 1.91218,1.230687 3.87134,2.451956 5.46773,4.051069 0.34686,0.280628 0.68399,0.574123 1.01042,0.880369 3.19639,2.982061 5.30824,7.157683 5.77976,11.537217 M 157.57926,19.51925 c 6.10401,-1.100986 13.00356,-0.867525 19.67101,0.797467 0.66674,0.166499 1.33091,0.347263 1.9916,0.541785 6.82811,2.08276 13.43744,5.045717 19.04269,9.028298 1.09758,0.7249 2.16275,1.479431 3.20178,2.262657 4.15613,3.132901 7.94436,6.757013 11.56325,10.701929 1.06315,1.022054 2.0898,2.102407 3.06858,3.248161 1.33684,1.723461 2.69938,3.439192 4.21184,5.018255 0.86426,0.902321 1.7801,1.759993 2.75672,2.539923 1.76388,1.439368 3.72595,2.60947 5.82461,3.487951 1.41008,0.608125 2.87636,1.091471 4.35595,1.48554 2.22097,0.656917 4.50322,1.156512 6.80525,1.437124 4.82158,0.364162 9.57307,-0.367541 14.31614,-1.407575 2.55146,-0.607498 5.10898,-1.239703 7.6865,-1.640008 3.96196,-0.642154 7.90331,-0.830544 11.651,-1.587759 1.41743,-0.164816 2.82142,-0.401566 4.20479,-0.785123 2.07135,-0.751026 4.05323,-1.82906 5.69738,-3.315781 0.41104,-0.37168 0.80082,-0.768938 1.1656,-1.192541 0.94261,-1.303805 1.64112,-2.776168 1.99649,-4.32057 0.0402,-0.16557 0.0766,-0.331849 0.1092,-0.498826 0.32616,-1.669762 0.27359,-3.410106 -0.0525,-5.138209 -0.3142,-2.315192 -1.35273,-4.515844 -2.40839,-6.631448 -0.0981,-0.195033 -0.19669,-0.389821 -0.29615,-0.584134 -1.03246,-1.953298 -2.20957,-3.806931 -3.67723,-5.403845 -0.39334,-0.45781 -0.81016,-0.895643 -1.24779,-1.31214 -1.75054,-1.665989 -3.83272,-2.991862 -6.08331,-3.917816 -0.84398,-0.347233 -1.71117,-0.638606 -2.59388,-0.874763 -2.72907,-0.587908 -5.53556,-0.62247 -8.26549,-0.212206 -2.40605,0.184736 -4.78277,0.721814 -7.06824,1.541227 -2.98382,0.940325 -5.83716,2.426286 -8.38544,4.290136 -1.62567,1.209152 -3.14332,2.569112 -4.50724,4.06919 -1.56566,1.76245 -2.90587,3.712107 -3.98414,5.801259 -1.29393,2.506982 -2.20647,5.21624 -2.68334,7.99305 -0.31791,1.851208 -0.44406,3.731915 -0.37061,5.610828 0.0906,4.652407 1.51173,9.206612 3.75521,13.323045 1.18567,2.220328 2.59692,4.311431 4.17418,6.254216 4.20602,5.180759 9.56131,9.380287 15.20325,12.987823 0.87387,0.599174 1.7579,1.1832 2.64531,1.757174 1.78032,1.139032 3.60256,2.269428 5.1005,3.738805 0.39241,0.300528 0.77382,0.616179 1.14319,0.946565 3.63325,3.232392 6.04873,7.865829 6.57242,12.737116 M 156.41853,19.281079 c 5.90076,-0.576339 12.54089,-0.04767 19.00627,1.663153 0.64653,0.171083 1.2911,0.353942 1.93289,0.548128 6.87853,2.162745 13.61116,4.950145 19.45363,8.669288 1.1688,0.686373 2.30867,1.400627 3.42447,2.143974 4.4632,2.973389 8.60415,6.452391 12.48047,10.376491 1.19644,1.071408 2.34455,2.216947 3.42828,3.4475 1.34499,1.683836 2.69734,3.375783 4.1887,4.940199 0.8522,0.893952 1.75209,1.746241 2.71199,2.523653 1.81355,1.502959 3.83893,2.719509 6.00195,3.649219 1.50606,0.666307 3.07388,1.201438 4.65418,1.647526 2.50704,0.774648 5.08652,1.375194 7.69092,1.722322 4.92703,0.440551 9.80369,-0.166785 14.66456,-1.17675 2.47734,-0.565986 4.95993,-1.170507 7.45257,-1.593295 3.88204,-0.688797 7.72326,-1.045412 11.33274,-1.98746 1.31103,-0.204103 2.60715,-0.475055 3.8814,-0.87806 1.98257,-0.83686 3.85959,-1.985425 5.40072,-3.511286 0.38528,-0.381466 0.74938,-0.786556 1.08888,-1.215658 0.91617,-1.403855 1.56339,-2.974655 1.84105,-4.602139 0.0318,-0.173294 0.0595,-0.347063 0.0832,-0.521305 0.23761,-1.742419 0.0795,-3.532961 -0.3171,-5.308793 -0.37466,-2.26215 -1.38411,-4.425495 -2.44352,-6.493925 -0.0994,-0.19238 -0.1996,-0.384343 -0.30093,-0.575663 -1.08364,-1.977475 -2.35275,-3.826399 -3.90984,-5.397404 -0.40481,-0.439186 -0.83184,-0.858259 -1.27847,-1.2559 -1.78651,-1.590567 -3.88496,-2.839793 -6.13787,-3.697076 -0.84484,-0.321481 -1.711,-0.588175 -2.59095,-0.800739 -2.89002,-0.542074 -5.84636,-0.473525 -8.70352,0.07192 -2.373,0.268196 -4.70981,0.873318 -6.95053,1.746876 -2.80559,0.949344 -5.48847,2.390649 -7.88939,4.178412 -1.5651,1.188753 -3.02524,2.52044 -4.33665,3.986445 -1.56357,1.793971 -2.88876,3.781123 -3.94334,5.906563 -1.26549,2.550528 -2.13762,5.30142 -2.56835,8.112082 -0.28716,1.873775 -0.38048,3.773459 -0.27603,5.668176 0.14956,4.509524 1.53417,8.922716 3.69337,12.92372 1.20559,2.284894 2.64664,4.433058 4.26244,6.429174 4.30879,5.322975 9.83292,9.629015 15.65497,13.285046 0.78475,0.535621 1.57841,1.057931 2.37505,1.57143 1.64846,1.047377 3.33377,2.086899 4.73327,3.42654 0.43797,0.320429 0.86366,0.658235 1.27595,1.012761 4.07011,3.482724 6.78923,8.573976 7.36509,13.937026 M 155.25781,19.042908 c 5.69751,-0.05169 12.07821,0.772189 18.34151,2.52884 0.62633,0.175665 1.2513,0.36062 1.87419,0.554469 6.92894,2.242732 13.78488,4.854574 19.86457,8.310278 1.24002,0.647846 2.45459,1.321824 3.64715,2.025293 4.77028,2.813875 9.26395,6.147769 13.39771,10.051051 1.32971,1.120763 2.59929,2.331487 3.78797,3.646839 1.35314,1.644211 2.69531,3.312375 4.16556,4.862145 0.84014,0.885583 1.72407,1.732489 2.66727,2.507383 1.86321,1.566548 3.9519,2.829547 6.17927,3.810485 1.60204,0.724491 3.2714,1.311407 4.95242,1.809513 2.79311,0.892378 5.66981,1.593876 8.57658,2.007519 5.03248,0.516941 10.03431,0.03397 15.01298,-0.945923 2.40323,-0.524474 4.81088,-1.101312 7.21866,-1.546583 3.8021,-0.73544 7.54319,-1.260281 11.01448,-2.387161 1.20462,-0.243391 2.39287,-0.548545 3.55801,-0.970997 1.89377,-0.922694 3.66595,-2.14179 5.10405,-3.706792 0.35953,-0.39125 0.69795,-0.804172 1.01215,-1.238774 0.88975,-1.503904 1.48568,-3.173142 1.68563,-4.883707 0.0233,-0.181019 0.0423,-0.362277 0.0572,-0.543784 0.14908,-1.815078 -0.11452,-3.655817 -0.58167,-5.479379 -0.43511,-2.209108 -1.4155,-4.335145 -2.47866,-6.3564 -0.10071,-0.189729 -0.20249,-0.378865 -0.3057,-0.567192 -1.13482,-2.001652 -2.49594,-3.845869 -4.14246,-5.390965 -0.41628,-0.420561 -0.85351,-0.820874 -1.30913,-1.19966 -1.82249,-1.515145 -3.93721,-2.687724 -6.19243,-3.476334 -0.84571,-0.295729 -1.71083,-0.537745 -2.58804,-0.726715 -3.05095,-0.496242 -6.15716,-0.324581 -9.14155,0.356046 -2.33994,0.351654 -4.63684,1.02482 -6.83281,1.952525 -2.62736,0.958363 -5.13979,2.355011 -7.39334,4.066687 -1.50453,1.168354 -2.90716,2.471767 -4.16605,3.9037 -1.56149,1.825492 -2.87167,3.850138 -3.90255,6.011867 -1.23705,2.594074 -2.06877,5.386601 -2.45337,8.231114 -0.2564,1.896342 -0.31688,3.815003 -0.18144,5.725523 0.20854,4.366642 1.5566,8.638821 3.63152,12.524395 1.22552,2.349461 2.69637,4.554685 4.35071,6.604132 4.41156,5.465192 10.10454,9.877743 16.1067,13.582271 0.69562,0.472067 1.39892,0.93266 2.10478,1.385685 1.5166,0.955723 3.06499,1.904371 4.36603,3.114276 0.48353,0.340329 0.9535,0.700291 1.40873,1.078957 4.50697,3.733055 7.52972,9.282122 8.15775,15.136935 M 154.09708,18.804738 c 5.49427,0.472952 11.61554,1.592046 17.67677,3.394525 0.60612,0.180248 1.21149,0.367299 1.81548,0.560811 6.97936,2.322718 13.95859,4.759003 20.27551,7.951269 1.31124,0.609319 2.60051,1.243019 3.86984,1.90661 5.07734,2.654363 9.92374,5.843147 14.31493,9.725613 1.463,1.170118 2.85405,2.446027 4.14767,3.846178 1.36129,1.604586 2.69327,3.248966 4.14241,4.78409 0.82809,0.877213 1.69607,1.718736 2.62255,2.491112 1.91288,1.630139 4.06488,2.939587 6.35661,3.971753 1.69802,0.782673 3.46892,1.421375 5.25065,1.971499 3.07917,1.010108 6.25311,1.812559 9.46225,2.292716 5.13792,0.593331 10.26492,0.234729 15.36139,-0.715096 2.32912,-0.482963 4.66184,-1.032117 6.98475,-1.499872 3.72216,-0.782082 7.36313,-1.475148 10.69622,-2.786861 1.09821,-0.282678 2.1786,-0.622035 3.23461,-1.063934 1.80499,-1.008528 3.47231,-2.298156 4.8074,-3.902297 0.33377,-0.401036 0.64651,-0.82179 0.93542,-1.261891 0.86331,-1.603954 1.40796,-3.371629 1.5302,-5.165276 0.0148,-0.188743 0.0252,-0.37749 0.0312,-0.566263 0.0605,-1.887736 -0.30857,-3.778671 -0.84625,-5.649964 -0.49556,-2.156065 -1.44688,-4.244796 -2.51379,-6.218875 -0.10202,-0.187078 -0.2054,-0.373388 -0.31048,-0.558721 -1.186,-2.025829 -2.63912,-3.865339 -4.37507,-5.384526 -0.42776,-0.401935 -0.8752,-0.783489 -1.33981,-1.143419 -1.85846,-1.439724 -3.98945,-2.535656 -6.24699,-3.255593 -0.84657,-0.269977 -1.71066,-0.487315 -2.58511,-0.652692 -3.2119,-0.450409 -6.46796,-0.175636 -9.57958,0.640172 -2.30688,0.435113 -4.56389,1.176324 -6.71509,2.158174 -2.44913,0.967383 -4.79111,2.319374 -6.8973,3.954963 -1.44396,1.147955 -2.78908,2.423095 -3.99545,3.820955 -1.55941,1.857013 -2.85457,3.919153 -3.86175,6.117171 -1.20862,2.63762 -1.99993,5.471781 -2.33839,8.350145 -0.22564,1.91891 -0.2533,3.856548 -0.0869,5.782872 0.26753,4.22376 1.57904,8.354925 3.56968,12.12507 1.24545,2.414026 2.74609,4.676311 4.43897,6.77909 4.51433,5.607409 10.37615,10.126471 16.55842,13.879494 0.6065,0.408514 1.21944,0.807391 1.83452,1.199941 1.38474,0.864068 2.79621,1.721843 3.9988,2.802011 0.52909,0.36023 1.04333,0.742348 1.54149,1.145153 4.94383,3.983386 8.27022,9.990265 8.95041,16.336835 M 152.93635,18.566567 c 5.29103,0.997599 11.15286,2.411903 17.01203,4.260212 0.58591,0.184831 1.17168,0.373976 1.75677,0.567152 7.02977,2.402704 14.13231,4.663432 20.68645,7.592259 1.38246,0.570792 2.74643,1.164216 4.09253,1.787929 5.38441,2.49485 10.58353,5.538524 15.23216,9.400173 1.59627,1.219473 3.10879,2.560567 4.50737,4.045518 1.36943,1.564961 2.69122,3.185558 4.11926,4.706034 0.81603,0.868844 1.66806,1.704984 2.57782,2.474842 1.96255,1.69373 4.17785,3.049626 6.53394,4.13302 1.79401,0.840857 3.66645,1.531343 5.5489,2.133486 3.36523,1.127839 6.8364,2.031241 10.3479,2.577914 5.24338,0.66972 10.49554,0.435485 15.70981,-0.48427 2.25501,-0.441452 4.5128,-0.962922 6.75084,-1.45316 3.64223,-0.828726 7.18307,-1.690017 10.37796,-3.186562 0.9918,-0.321966 1.96432,-0.695524 2.91121,-1.156871 1.7162,-1.094362 3.27867,-2.454521 4.51074,-4.097803 0.30801,-0.41082 0.59508,-0.839406 0.8587,-1.285007 0.83687,-1.704004 1.33024,-3.570116 1.37477,-5.446845 0.006,-0.196466 0.008,-0.392703 0.005,-0.588742 -0.028,-1.960393 -0.50263,-3.901526 -1.11083,-5.820548 -0.55602,-2.103024 -1.47827,-4.154447 -2.54892,-6.081351 -0.10334,-0.184427 -0.20831,-0.367911 -0.31526,-0.550251 -1.23718,-2.050005 -2.78231,-3.884808 -4.60768,-5.378086 -0.43924,-0.38331 -0.89688,-0.746104 -1.37049,-1.087179 -1.89443,-1.364301 -4.04169,-2.383586 -6.30154,-3.034851 -0.84745,-0.244225 -1.71049,-0.436886 -2.5822,-0.578669 -3.37283,-0.404576 -6.77875,-0.02669 -10.01761,0.924298 -2.27382,0.518573 -4.49092,1.327828 -6.59737,2.363823 -2.2709,0.976403 -4.44243,2.283737 -6.40125,3.843238 -1.3834,1.127557 -2.671,2.374423 -3.82485,3.738211 -1.55733,1.888534 -2.83747,3.988169 -3.82096,6.222475 -1.18018,2.681167 -1.93108,5.556962 -2.22341,8.469177 -0.19488,1.941476 -0.1897,3.898092 0.008,5.84022 0.32652,4.080877 1.60147,8.071029 3.50784,11.725745 1.26537,2.478592 2.79581,4.797938 4.52722,6.954047 4.61711,5.749626 10.64777,10.375199 17.01016,14.176719 0.51737,0.34496 1.03995,0.682121 1.56426,1.014196 1.25287,0.772414 2.52741,1.539314 3.63156,2.489746 0.57464,0.380132 1.13317,0.784405 1.67426,1.21135 5.38069,4.233717 9.01072,10.698414 9.74307,17.536744 M 151.77562,18.328396 c 5.08779,1.522245 10.69019,3.23176 16.34729,5.125898 0.5657,0.189414 1.13187,0.380655 1.69806,0.573494 7.08018,2.48269 14.30602,4.56786 21.09739,7.23325 1.45368,0.532265 2.89235,1.085412 4.31522,1.669246 5.69148,2.335337 11.24332,5.233903 16.14939,9.074734 1.72955,1.268828 3.36353,2.675107 4.86706,4.244858 1.37757,1.525336 2.68918,3.122149 4.09612,4.627979 0.80396,0.860475 1.64004,1.691232 2.53309,2.458571 2.01221,1.75732 4.29083,3.159665 6.71128,4.294287 1.88998,0.89904 3.86396,1.641312 5.84713,2.295473 3.6513,1.245569 7.4197,2.249923 11.23357,2.863111 5.34882,0.74611 10.72615,0.636241 16.05823,-0.253443 2.18089,-0.399941 4.36374,-0.893727 6.51691,-1.406448 3.5623,-0.875369 7.00301,-1.904886 10.05971,-3.586263 0.88539,-0.361254 1.75004,-0.769014 2.58781,-1.249808 1.62742,-1.180196 3.08504,-2.610886 4.21408,-4.293308 0.28226,-0.420606 0.54364,-0.857023 0.78198,-1.308124 0.81044,-1.804053 1.25252,-3.768603 1.21933,-5.728414 -0.002,-0.20419 -0.009,-0.407916 -0.0207,-0.611221 -0.11656,-2.033051 -0.69669,-4.02438 -1.37541,-5.991133 -0.61647,-2.049981 -1.50965,-4.064097 -2.58406,-5.943827 -0.10464,-0.181775 -0.21121,-0.362433 -0.32003,-0.541779 -1.28836,-2.074183 -2.92549,-3.904278 -4.8403,-5.371647 -0.45071,-0.364684 -0.91855,-0.708719 -1.40115,-1.030939 -1.93041,-1.288879 -4.09394,-2.231517 -6.35611,-2.81411 -0.84831,-0.218472 -1.71032,-0.386455 -2.57927,-0.504645 -3.53378,-0.358742 -7.08955,0.122253 -10.45564,1.208424 -2.24077,0.602032 -4.41797,1.479331 -6.47966,2.569472 -2.09267,0.985423 -4.09375,2.2481 -5.9052,3.731514 -1.32283,1.107158 -2.55291,2.325751 -3.65426,3.655466 -1.55524,1.920055 -2.82037,4.057184 -3.78016,6.327778 -1.15174,2.724714 -1.86223,5.642143 -2.10842,8.588209 -0.16413,1.964044 -0.12612,3.939637 0.10231,5.897568 0.38551,3.937995 1.62391,7.787134 3.44599,11.326421 1.2853,2.543158 2.84554,4.919564 4.61549,7.129005 4.71988,5.891842 10.91939,10.623927 17.46188,14.473942 0.42825,0.281408 0.86046,0.556852 1.294,0.828452 1.12101,0.680759 2.25863,1.356786 3.26433,2.177482 0.6202,0.400032 1.223,0.82646 1.80702,1.277545 5.81756,4.484049 9.75122,11.406564 10.53574,18.736644 M 150.61489,18.090225 c 4.88454,2.046891 10.22752,4.051618 15.68254,5.991585 0.5455,0.193996 1.09206,0.387333 1.63936,0.579836 7.1306,2.562676 14.47974,4.472288 21.50833,6.87424 1.5249,0.493737 3.03827,1.006608 4.53791,1.550564 5.99854,2.175824 11.90311,4.92928 17.06661,8.749295 1.86283,1.318183 3.61828,2.789647 5.22676,4.444197 1.38572,1.48571 2.68714,3.05874 4.07298,4.549924 0.7919,0.852105 1.61203,1.677479 2.48836,2.4423 2.06188,1.820911 4.40381,3.269704 6.88861,4.455555 1.98597,0.957222 4.06149,1.751279 6.14537,2.457459 3.93737,1.363299 8.00299,2.468606 12.11923,3.148308 5.45427,0.8225 10.95677,0.836998 16.40665,-0.02262 2.10678,-0.358429 4.2147,-0.824531 6.283,-1.359735 3.48236,-0.922012 6.82295,-2.119754 9.74145,-3.985964 0.77898,-0.400541 1.53577,-0.842504 2.26441,-1.342745 1.53863,-1.266029 2.8914,-2.767251 3.91742,-4.488814 0.25651,-0.43039 0.49221,-0.87464 0.70526,-1.331241 0.784,-1.904102 1.1748,-3.967089 1.0639,-6.009982 -0.0105,-0.211914 -0.0262,-0.423129 -0.0467,-0.6337 -0.20511,-2.105709 -0.89075,-4.147235 -1.63999,-6.161718 -0.67693,-1.996939 -1.54103,-3.973747 -2.61919,-5.806302 -0.10595,-0.179123 -0.21412,-0.356956 -0.3248,-0.533308 -1.33955,-2.09836 -3.06869,-3.923748 -5.07292,-5.365207 -0.46218,-0.34606 -0.94023,-0.671335 -1.43183,-0.974699 -1.96638,-1.213457 -4.14618,-2.079448 -6.41066,-2.593369 -0.84918,-0.19272 -1.71015,-0.336025 -2.57635,-0.430621 -3.69472,-0.31291 -7.40036,0.271197 -10.89368,1.49255 -2.20771,0.68549 -4.345,1.630834 -6.36194,2.775121 -1.91443,0.994441 -3.74506,2.212462 -5.40915,3.619789 -1.26226,1.086759 -2.43483,2.277078 -3.48366,3.572721 -1.55316,1.951576 -2.80327,4.126199 -3.73936,6.433082 -1.12332,2.76826 -1.79339,5.727324 -1.99345,8.707241 -0.13337,1.986611 -0.0625,3.981181 0.1969,5.954916 0.4445,3.795112 1.64634,7.503238 3.38415,10.927095 1.30522,2.607725 2.89526,5.041192 4.70375,7.303964 4.82265,6.034058 11.191,10.872654 17.91361,14.771166 0.33911,0.217854 0.68097,0.431581 1.02373,0.642707 0.98915,0.589104 1.98984,1.174257 2.8971,1.865217 0.66575,0.419933 1.31284,0.868517 1.93979,1.343742 6.25441,4.73438 10.49171,12.114703 11.32839,19.936553 M 149.45416,17.852055 c 4.6813,2.571537 9.76485,4.871474 15.0178,6.85727 0.5253,0.19858 1.05225,0.394012 1.58065,0.586178 7.18101,2.642662 14.65345,4.376717 21.91927,6.51523 1.59612,0.455211 3.18419,0.927804 4.76059,1.431882 6.30562,2.016311 12.56291,4.624659 17.98385,8.423856 1.99611,1.367538 3.87302,2.904187 5.58645,4.643537 1.39387,1.446085 2.6851,2.995331 4.04983,4.471868 0.77985,0.843736 1.58402,1.663727 2.44364,2.42603 2.11155,1.884501 4.51679,3.379744 7.06595,4.616822 2.08195,1.015406 4.25901,1.861248 6.4436,2.619446 4.22343,1.48103 8.58629,2.687288 13.0049,3.433506 5.55971,0.898889 11.18738,1.037754 16.75506,0.208209 2.03267,-0.316917 4.06565,-0.755336 6.04909,-1.313023 3.40243,-0.968655 6.64288,-2.334623 9.42319,-4.385665 0.67257,-0.439829 1.32149,-0.915993 1.94101,-1.435682 1.44985,-1.351863 2.69777,-2.923617 3.62076,-4.684319 0.23075,-0.440176 0.44078,-0.892257 0.62854,-1.354358 0.75757,-2.004152 1.09708,-4.165576 0.90847,-6.291551 -0.019,-0.219638 -0.0434,-0.438342 -0.0727,-0.656179 -0.29366,-2.178366 -1.0848,-4.27009 -1.90457,-6.332302 -0.73738,-1.943897 -1.57242,-3.883398 -2.65432,-5.668778 -0.10726,-0.176472 -0.21703,-0.351479 -0.32958,-0.524838 -1.39073,-2.122536 -3.21187,-3.943217 -5.30553,-5.358767 -0.47366,-0.327435 -0.96192,-0.63395 -1.4625,-0.918459 -2.00236,-1.138035 -4.19843,-1.927379 -6.46522,-2.372627 -0.85005,-0.166968 -1.70999,-0.285595 -2.57344,-0.356598 -3.85566,-0.267077 -7.71115,0.420142 -11.3317,1.776676 -2.17465,0.76895 -4.27204,1.782337 -6.24423,2.98077 -1.7362,1.003461 -3.39638,2.176824 -4.9131,3.508065 -1.2017,1.06636 -2.31675,2.228406 -3.31306,3.489976 -1.55108,1.983097 -2.78617,4.195215 -3.69857,6.538386 -1.09488,2.811806 -1.72454,5.812504 -1.87846,8.826272 -0.10261,2.009179 0.001,4.022726 0.29148,6.012264 0.50349,3.65223 1.66878,7.219343 3.32231,10.527771 1.32515,2.672291 2.94498,5.162818 4.79201,7.478921 4.92542,6.176275 11.46261,11.121383 18.36533,15.06839 0.24999,0.154301 0.50149,0.306312 0.75347,0.456963 0.85728,0.49745 1.72106,0.991729 2.52987,1.552953 0.71131,0.439833 1.40267,0.910573 2.07256,1.409937 6.69127,4.984712 11.2322,12.822853 12.12105,21.136453 M 148.29344,17.613884 c 4.47805,3.096183 9.30217,5.691331 14.35305,7.722957 0.50509,0.203162 1.01244,0.400689 1.52195,0.592519 7.23142,2.722648 14.82716,4.281146 22.3302,6.156221 1.66734,0.416683 3.33011,0.849 4.98328,1.313199 6.61269,1.856799 13.2227,4.320037 18.90107,8.098418 2.12939,1.416892 4.12777,3.018727 5.94616,4.842876 1.40201,1.40646 2.68305,2.931922 4.02668,4.393813 0.76779,0.835366 1.55601,1.649975 2.39892,2.409759 2.16121,1.948092 4.62976,3.489783 7.24327,4.77809 2.17793,1.073588 4.45653,1.971216 6.74185,2.781432 4.50949,1.59876 9.16958,2.90597 13.89055,3.718703 5.66517,0.975279 11.418,1.238511 17.10349,0.439036 1.95855,-0.275406 3.9166,-0.686141 5.81517,-1.266312 3.32249,-1.015297 6.46282,-2.54949 9.10492,-4.785366 0.56617,-0.479116 1.10722,-0.989482 1.61762,-1.528618 1.36106,-1.437697 2.50413,-3.079982 3.3241,-4.879825 0.205,-0.44996 0.38934,-0.909874 0.55182,-1.377474 0.73113,-2.104201 1.01935,-4.364063 0.75304,-6.57312 -0.0274,-0.227362 -0.0605,-0.453555 -0.0987,-0.678658 -0.3822,-2.251024 -1.27886,-4.392944 -2.16914,-6.502887 -0.79784,-1.890855 -1.60381,-3.793048 -2.68947,-5.531253 -0.10856,-0.173821 -0.21992,-0.346002 -0.33435,-0.516367 -1.44191,-2.146714 -3.35506,-3.962687 -5.53815,-5.352328 -0.48513,-0.308809 -0.98359,-0.596565 -1.49317,-0.862218 -2.03833,-1.062613 -4.25067,-1.77531 -6.51978,-2.151886 -0.85091,-0.141216 -1.70981,-0.235165 -2.57051,-0.282575 -4.0166,-0.221244 -8.02195,0.569087 -11.76974,2.060802 -2.14159,0.852409 -4.19908,1.933841 -6.1265,3.186419 -1.55798,1.012481 -3.0477,2.141187 -4.41706,3.396341 -1.14113,1.045961 -2.19867,2.179733 -3.14246,3.407231 -1.54899,2.014618 -2.76908,4.26423 -3.65778,6.64369 -1.06644,2.855352 -1.65569,5.897685 -1.76347,8.945304 -0.0719,2.031746 0.0647,4.064271 0.38606,6.069612 0.56248,3.509347 1.69122,6.935447 3.26047,10.128446 1.34507,2.736856 2.9947,5.284445 4.88027,7.653879 5.0282,6.318491 11.73423,11.37011 18.81706,15.365614 0.16086,0.09075 0.322,0.181042 0.4832,0.271218 0.72542,0.405795 1.45227,0.8092 2.16264,1.240688 0.75686,0.459734 1.49251,0.95263 2.20532,1.476134 7.12813,5.235043 11.9727,13.531002 12.91372,22.336362"
       inkscape:connector-curvature="0"
       sodipodi:nodetypes="cscscsscsssccccssscsscsssccc" />
    <path
       style="opacity:1;fill:#e9afaf;fill-opacity:1;fill-rule:nonzero;stroke:#00c420;stroke-width:3.05061841;stroke-miterlimit:4;stroke-dasharray:9.15185554, 9.15185554;stroke-dashoffset:15.16157436;stroke-opacity:0.96470588"
       d=""
       id="path943"
       inkscape:connector-curvature="0"
       transform="matrix(0.26458333,0,0,0.26458333,2.545488,-2.1626575)" />
    <path
       style="opacity:1;fill:#e9afaf;fill-opacity:1;fill-rule:nonzero;stroke:#00c420;stroke-width:3.05061841;stroke-miterlimit:4;stroke-dasharray:9.15185554, 9.15185554;stroke-dashoffset:15.16157436;stroke-opacity:0.96470588"
       d=""
       id="path945"
       inkscape:connector-curvature="0"
       transform="matrix(0.26458333,0,0,0.26458333,2.545488,-2.1626575)" />
  </g>
</svg>
