<svg xmlns="http://www.w3.org/2000/svg" width="256" height="256"><path fill-opacity=".016" d="M0 128.004v128.004l128.25-.254 128.25-.254.254-127.75L257.008 0H0v128.004m.485.496c0 70.4.119 99.053.265 63.672.146-35.38.146-92.98 0-128C.604 29.153.485 58.1.485 128.5" fill="#1976D2" fill-rule="evenodd"/><path fill-opacity=".127" d="M116.845 8.329C101.568 21.945 86.993 39.082 78.568 53.33c-8.751 14.803-12.04 25.664-11.428 37.738.651 12.846 5.77 20.512 26.234 39.292 10.834 9.943 11.242 9.994 14.857 1.841 2.94-6.632 1.01-12.76-6.744-21.412-6.419-7.162-7.989-11.058-7.974-19.789.011-6.645.411-8.241 3.5-13.993 6.795-12.655 24.17-28.065 48.897-43.371 6.1-3.776 11.09-7.161 11.09-7.524 0-.692-11.526-12.064-21.19-20.906C132.68 2.343 129.236 0 128.155 0c-1.08 0-6.17 3.748-11.31 8.329m28.524 34.531C110.142 68.029 99 79.184 99 89.286c0 5.737 1.347 8.603 9.101 19.365 8.932 12.396 9.554 15.239 5.329 24.349-2.366 5.1-7.86 12-9.555 12-1.72 0-20.941-15.188-27.129-21.438-8.31-8.392-14.312-19.604-15.335-28.647-.376-3.323-1.066-5.66-1.534-5.192C57.957 91.643 55 106.663 55 114.5c0 26.069 14.694 47.843 41.698 61.79 11.26 5.815 18.972 7.676 31.892 7.695 28.707.042 53.765-15.702 66.027-41.485 4.675-9.828 6.525-17.935 6.176-27.063l-.293-7.678-3.204 4.47c-4.133 5.766-16.665 19.185-20.4 21.845-3.15 2.243-6.896 1.853-6.896-.718 0-.829 4.839-6.32 10.754-12.2 8.123-8.076 11.697-12.485 14.604-18.017 3.594-6.84 3.803-7.701 3.148-12.982-.868-7.006-2.933-12.157-4.873-12.157-.808 0-10.342 9.188-21.187 20.418-16.981 17.584-20.011 20.309-21.832 19.637-1.163-.43-2.239-1.411-2.392-2.182-.153-.77 3.742-4.939 8.655-9.265 8.578-7.552 18.813-18.258 28.036-29.328 3.744-4.493 4.261-5.66 3.716-8.385-1.316-6.58-8.003-13.88-12.724-13.891-2.986-.007-21.976 15.004-34.807 27.514-12.19 11.885-12.872 12.389-14.446 10.65-.909-1.004-1.652-2.294-1.652-2.866 0-2.282 22.391-22.381 35.315-31.699 15.17-10.939 14.74-10.158 10.082-18.28-2.44-4.254-6.768-8.343-8.782-8.298-.613.014-7.924 4.89-16.246 10.835M67.381 197.765c-1.659 1.089-12.403 32.597-11.445 33.563.451.456 2.075.681 3.609.5 2.175-.256 3.046-1.098 3.957-3.828 1.144-3.428 1.292-3.506 7.165-3.793l5.996-.294 1.588 4.044c1.368 3.482 2.008 4.043 4.61 4.043 1.661 0 3.275-.41 3.584-.912.761-1.231-10.187-32.305-11.727-33.283-1.543-.981-5.868-1.004-7.337-.04m29.932.337c-1.753.508-4.115 2.103-5.25 3.545-4.302 5.469-1.628 11.513 7.036 15.903 2.695 1.366 4.894 3.039 4.886 3.717-.035 2.821-1.816 3.643-8.513 3.932-6.694.289-6.984.406-7.277 2.929-.287 2.481-.008 2.662 5 3.247C104.03 232.638 111 228.63 111 221.135c0-4.79-1.413-6.656-7.543-9.961-3.336-1.8-5.061-3.41-5.277-4.924-.298-2.102.047-2.25 5.25-2.25 3.666 0 5.57-.41 5.57-1.2 0-.933.267-.933 1.2 0 .66.66 2.91 1.2 5 1.2h3.8v13.433c0 12.554.131 13.474 2 14.067 1.1.349 2.9.349 4 0 1.869-.593 2-1.513 2-14.01v-13.375l4.25-.308c3.987-.288 4.25-.492 4.25-3.307v-3l-11.858-.283c-7.444-.177-12.343.12-13.161.799-.904.75-1.502.76-1.951.033-.776-1.257-6.788-1.228-11.217.053m46.639 1.151c-5.315 3.582-7.461 8.17-7.398 15.819.097 11.805 5.681 17.375 16.709 16.668 10.12-.649 15.149-6.538 15.149-17.74 0-7.94-2.302-12.653-7.446-15.248-5.018-2.532-12.856-2.301-17.014.501m30.619-.682c-1.287 1.287-1.571 4.251-1.571 16.378 0 15.594.576 17.662 4.702 16.871 1.591-.305 1.832-1.722 2.093-12.332l.294-11.988 6.029 11.254c6.246 11.66 8.375 13.841 12.499 12.806l2.431-.61-.274-16.725-.274-16.725H198c-2.498 0-2.5.01-2.789 11l-.289 11-5.362-9.941c-2.949-5.468-6.168-10.53-7.152-11.25-2.418-1.768-5.924-1.65-7.837.262m-26.879 6.457c-4.909 3.861-4.619 15.444.482 19.253 3.316 2.476 8.229 1.559 10.539-1.966 1.716-2.618 2.245-9.958 1.037-14.394-.709-2.604-4.317-4.921-7.662-4.921-1 0-2.978.912-4.396 2.028m-79.009 6.31c-.926 2.936-1.683 5.636-1.683 6 0 .364 1.77.662 3.934.662h3.935l-2.026-6c-1.115-3.3-2.128-6-2.252-6-.124 0-.983 2.402-1.908 5.338m10.782 31.719c-1.187 1.921.446 5.581 3.011 6.75 1.388.633 2.524 1.891 2.524 2.797 0 1.296-.638 1.518-3 1.046-2.249-.45-3-.231-3 .875 0 1.021 1.084 1.475 3.521 1.475 6.174 0 7.259-6.666 1.389-8.529-2.979-.945-2.455-3.808.59-3.226 1.676.32 2.5.029 2.5-.884 0-1.639-6.546-1.904-7.535-.304M97 249c0 5.289.328 7.057 1.25 6.75.825-.275 1.25-2.572 1.25-6.75s-.425-6.475-1.25-6.75c-.922-.307-1.25 1.461-1.25 6.75m12.465-5.943c-1.187 1.921.446 5.581 3.011 6.75 1.388.633 2.524 1.891 2.524 2.797 0 1.296-.638 1.518-3 1.046-2.249-.45-3-.231-3 .875 0 1.002 1.058 1.475 3.3 1.475 6.115 0 7.813-4.891 2.706-7.797-3.731-2.123-4.053-4.636-.506-3.958 1.676.32 2.5.029 2.5-.884 0-1.639-6.546-1.904-7.535-.304M125 243c0 .55.9 1 2 1 1.778 0 2 .667 2 6 0 4.667.333 6 1.5 6s1.5-1.333 1.5-6c0-5.333.222-6 2-6 1.1 0 2-.45 2-1s-2.475-1-5.5-1-5.5.45-5.5 1m20 6v7h4c2.2 0 4-.45 4-1s-1.35-1-3-1c-2.333 0-3-.444-3-2 0-1.484.667-2 2.583-2 3.133 0 2.79-2.348-.411-2.82-3.391-.499-2.693-3.18.828-3.18 1.65 0 3-.45 3-1s-1.8-1-4-1h-4v7m17.412-5.631c-.289.753-.388 3.755-.219 6.672.401 6.919 2.58 7.845 3 1.273l.307-4.814 1.563 4.438c.859 2.44 2.104 4.618 2.767 4.839.679.226 2.209-1.876 3.508-4.819l2.304-5.22-.071 4.782c-.044 2.983.399 4.944 1.179 5.214.923.32 1.25-1.42 1.25-6.651 0-6.292-.212-7.083-1.9-7.083-1.378 0-2.403 1.402-3.738 5.115l-1.84 5.115-2.241-5.115c-2.189-4.994-4.76-6.635-5.869-3.746" fill="#1976D2" fill-rule="evenodd"/><path fill-opacity=".516" d="M122.34 3.853c-6.28 5-27.644 27.113-33.009 34.166-7.704 10.128-15.121 22.925-18.393 31.736-2.776 7.474-3.262 10.129-3.343 18.265-.089 8.898.127 9.969 3.301 16.42 2.675 5.434 5.756 9.223 14.5 17.832 6.107 6.013 12.764 12.252 14.793 13.866l3.69 2.934 2.56-3.768c4.833-7.112 2.927-15.777-5.49-24.955-5.861-6.39-8.199-11.759-8.199-18.828 0-11.214 6.972-22.558 22.025-35.835 7.311-6.449 28.707-21.474 37.993-26.682 2.348-1.316 4.148-2.739 4-3.163C156.174 24.136 129.811 0 128.544 0c-.751 0-3.542 1.734-6.204 3.853m26.229 37.176c-27.86 19.699-43.711 33.501-47.527 41.384-3.875 8.005-2.921 11.469 7.045 25.587 7.85 11.12 9.147 14.761 7.384 20.731-1.65 5.59-5.865 12.647-9.049 15.151l-2.579 2.029-8.61-6.205c-13.437-9.684-25.191-21.827-29.497-30.473-1.99-3.997-3.927-9.397-4.305-12-.377-2.603-.931-5.153-1.231-5.666-.887-1.519-3.086 6.043-4.399 15.124-4.167 28.82 14.32 57.865 45.699 71.799 16.021 7.114 37.127 7.147 54.507.085C181.843 168.077 201 140.877 201 114.691v-6.989l-4.902 6.399c-2.696 3.519-8.484 9.926-12.861 14.237-6.175 6.082-8.491 7.762-10.337 7.5-4.909-.697-3.347-3.66 8.266-15.678C193.931 106.951 198 100.288 198 92.593c0-5.449-1.795-13.348-3.236-14.239-.544-.336-10.39 8.781-21.879 20.261-17.921 17.906-21.138 20.715-22.637 19.771-2.905-1.829-2.591-4.231.928-7.113 9.314-7.626 32.257-31.434 36.441-37.813 2.722-4.15-2.185-13.634-8.834-17.072-2.888-1.494-3.152-1.427-8.631 2.195-8.77 5.797-19.667 14.912-31.162 26.067-8.636 8.38-10.82 10.025-12.25 9.224-.957-.535-1.74-1.774-1.74-2.753 0-4.263 18.6-21.273 38.829-35.509 4.581-3.224 8.57-6.488 8.864-7.255.76-1.981-1.599-7.18-5.033-11.091-5.313-6.052-5.171-6.08-19.091 3.763m-3.533 158.221c-5.849 2.999-8.037 7.285-8.032 15.734.006 11.042 4.968 16.51 14.927 16.448 10.849-.067 16.003-5.859 16.047-18.034.017-4.704-.498-6.881-2.248-9.5-4.538-6.793-12.864-8.663-20.694-4.648m-79.119 1.442C63.535 206.898 56 229.308 56 230.187c0 .517 1.448.799 3.218.626 2.675-.26 3.377-.869 4.157-3.605l.938-3.292 6.56.292c6.454.287 6.574.344 7.488 3.542.81 2.836 1.355 3.25 4.284 3.25 2.554 0 3.339-.418 3.289-1.75-.036-.963-2.4-8.275-5.253-16.25l-5.188-14.5-4.249-.308c-3.858-.279-4.349-.048-5.327 2.5m29.583-1.537c-3.225 1.764-4.5 3.986-4.5 7.845 0 4.648 1.448 6.539 7.53 9.826 8.755 4.734 6.712 9.174-4.221 9.174-6.063 0-6.309.098-6.309 2.5 0 2.446.162 2.5 7.566 2.5 8.012 0 10.862-.911 13.662-4.367 4.11-5.074 1.046-12.091-6.795-15.559-7.837-3.467-6.874-8.074 1.689-8.074 4.537 0 4.878-.175 4.878-2.5 0-2.38-.275-2.499-5.75-2.47-3.162.017-6.65.523-7.75 1.125m14.836.412c-.86 2.241.587 3.254 5.164 3.616l4 .317.278 13.75.278 13.75h5.888l.278-13.75.278-13.75 4.75-.305c4.289-.275 4.75-.542 4.75-2.75V198h-12.531c-10.456 0-12.631.26-13.133 1.567M174 214.445V231h6l.015-12.25.016-12.25 6.381 12 6.38 12 4.104.307 4.104.308V198h-6l-.014 11.25-.015 11.25-5.856-11-5.857-11-4.629-.305-4.629-.305v16.555m-26.975-9.47c-2.604 2.604-3.376 6.017-2.776 12.266.357 3.719 1.11 5.631 2.733 6.945 3.299 2.672 8.181 2.334 11.094-.767 2.089-2.224 2.424-3.548 2.424-9.588 0-6.158-.286-7.239-2.361-8.919-3.096-2.508-8.574-2.477-11.114.063M68.294 211.5l-2.113 6.5h4.517c3.192 0 4.381-.366 4.055-1.25-.254-.687-1.238-3.613-2.188-6.5-.949-2.887-1.823-5.25-1.941-5.25-.119 0-1.167 2.925-2.33 6.5m11.717 31.987c-1.64 1.975-.647 4.266 2.461 5.682 1.448.66 2.528 1.986 2.528 3.105 0 1.605-.539 1.874-3.027 1.509-1.892-.278-2.894-.039-2.672.636.52 1.581 4.576 1.928 6.254.535 2.298-1.907 1.714-4.243-1.796-7.191-2.533-2.128-2.956-2.936-1.898-3.628.748-.489 2.281-.649 3.406-.355 1.386.363 1.815.162 1.33-.622-1.014-1.642-5.121-1.436-6.586.329M97 249c0 4 .429 7 1 7s1-3 1-7-.429-7-1-7-1 3-1 7m13.011-5.513c-1.64 1.975-.647 4.266 2.461 5.682 1.448.66 2.528 1.986 2.528 3.105 0 1.605-.539 1.874-3.027 1.509-1.892-.278-2.894-.039-2.672.636.52 1.581 4.576 1.928 6.254.535 2.298-1.907 1.714-4.243-1.796-7.191-2.533-2.128-2.956-2.936-1.898-3.628.748-.489 2.281-.649 3.406-.355 1.386.363 1.815.162 1.33-.622-1.014-1.642-5.121-1.436-6.586.329M126 243c0 .55.9 1 2 1 1.78 0 2 .667 2 6.059 0 3.785.375 5.827 1 5.441.55-.34 1-3.066 1-6.059 0-4.071.363-5.441 1.441-5.441.793 0 1.719-.45 2.059-1 .381-.616-1.323-1-4.441-1-2.782 0-5.059.45-5.059 1m19 6v7h3.5c1.925 0 3.5-.45 3.5-1s-1.125-1-2.5-1c-1.982 0-2.5-.504-2.5-2.434 0-1.887.617-2.527 2.75-2.85l2.75-.416-2.75-.15c-3.717-.203-4.011-4.15-.309-4.15 1.343 0 2.719-.45 3.059-1 .373-.604-.99-1-3.441-1H145v7m18 0c0 8.124 1.751 9.518 2.198 1.75l.302-5.25 1.847 5.301c1.016 2.915 2.325 5.142 2.91 4.947.584-.195 2.002-2.805 3.152-5.801l2.091-5.447.3 5.75c.426 8.16 2.2 7.152 2.2-1.25 0-8.818-1.938-9.445-5.403-1.75l-2.365 5.25-1.468-3.5c-.808-1.925-1.746-4.287-2.085-5.25-.339-.963-1.305-1.75-2.148-1.75-1.229 0-1.531 1.381-1.531 7" fill="#1976D2" fill-rule="evenodd"/><path fill-opacity=".406" d="M124.954 2.174c-5.369 3.265-28.889 27.457-36.096 37.127C74.53 58.525 67.8 74.292 67.8 88.636c0 14.171 4.948 21.963 26.365 41.515l9.069 8.279 2.338-2.719c2.964-3.446 3.999-8.862 2.591-13.561-.602-2.011-3.395-6.355-6.207-9.653-7.737-9.079-9.391-12.767-9.426-21.018-.025-5.938.472-8.041 3.226-13.635 6.078-12.346 20.478-25.652 44.885-41.473a4663.005 4663.005 0 0014-9.098c1.694-1.119.748-2.306-10.638-13.348-6.874-6.665-13.209-12.5-14.079-12.966-1.044-.558-2.732-.146-4.97 1.215m20.723 41.318c-19.657 13.97-27.769 20.459-36.279 29.022-12.754 12.832-13.078 18.76-1.882 34.367 7.095 9.889 9.484 14.18 9.484 17.032 0 4.167-4.275 13.198-8.41 17.765l-4.289 4.737-8.401-5.946c-4.62-3.27-12.713-10.226-17.985-15.457-10.461-10.381-14.843-17.553-16.979-27.793-1.071-5.129-1.288-5.465-2.112-3.254-.505 1.356-1.611 6.561-2.456 11.566-1.396 8.259-1.389 9.974.068 18.535 3.922 23.031 18.048 40.611 42.064 52.348 10.823 5.29 17.888 6.869 30.5 6.818 34.056-.136 62.164-22.499 70.058-55.741 1.124-4.73 1.908-10.817 1.742-13.528l-.3-4.929-5.5 7.088C188.827 124.077 175.5 137 173.47 137c-1.529 0-4.47-2.69-4.47-4.088 0-.52 4.084-4.876 9.077-9.679 10.017-9.639 18.469-21.295 19.526-26.93.825-4.397-1.014-15.142-2.917-17.046-1.153-1.153-4.477 1.822-21.441 19.189-20.545 21.035-22.972 22.801-25.319 18.416-1.032-1.929-.523-2.678 5.215-7.664 16.125-14.012 34.868-35.046 34.843-39.101-.026-4.074-4.158-10.394-8.231-12.59-3.656-1.97-3.735-1.971-7.261-.073-5.96 3.21-23.433 17.799-33.492 27.965-5.225 5.28-9.993 9.601-10.595 9.601-1.218 0-4.405-3.215-4.405-4.444 0-.432 3.487-4.377 7.75-8.767 8.105-8.347 19.068-17.414 33-27.291 4.537-3.216 8.25-6.302 8.25-6.857C173 43.462 164.884 33 161.643 33c-.662 0-7.847 4.721-15.966 10.492m-83.42 168.707C55.017 232.922 55.361 231 58.892 231c2.671 0 3.17-.476 4.239-4.042l1.211-4.042 6.493.292c6.443.29 6.503.319 7.662 3.792.966 2.893 1.718 3.554 4.336 3.813 1.742.173 3.164-.052 3.161-.5-.004-.447-2.427-7.788-5.385-16.313l-5.378-15.5-3.988-.301-3.989-.302-4.997 14.302m34.1-13.207C93.484 200.151 91 203.865 91 207c0 3.752 2.51 6.718 8.07 9.535 2.711 1.374 4.93 2.679 4.93 2.9 0 .221.251 1.055.558 1.854 1.118 2.916-2.361 4.711-9.129 4.711-6.263 0-6.429.067-6.429 2.609v2.61l7.449-.377c8.526-.43 12.471-2.58 13.904-7.576 1.302-4.54-.951-8.303-6.754-11.282-5.436-2.791-7.233-4.89-6.29-7.348.477-1.242 1.961-1.636 6.16-1.636 5.233 0 5.531-.135 5.531-2.5 0-2.357-.3-2.496-5.25-2.437-2.888.035-6.214.453-7.393.929M111 200.5c0 2.296.367 2.5 4.5 2.5h4.5v28h6v-28h4.5c4.133 0 4.5-.204 4.5-2.5V198h-24v2.5m31.675.481c-5.419 4.757-7.187 13.88-4.267 22.019 3.799 10.593 22.492 10.914 27.512.472 3.402-7.076 2.187-18.144-2.472-22.521-2.131-2.002-3.83-2.482-9.861-2.786-6.996-.354-7.43-.242-10.912 2.816m31.766-1.687c-.273.712-.372 8.024-.219 16.25l.278 14.956h5v-12.251c0-6.738.247-12.251.55-12.25.302 0 2.327 3.673 4.5 8.161 2.172 4.488 5.195 10.141 6.717 12.562 2.457 3.908 3.131 4.367 6 4.09l3.233-.312.275-16.25.275-16.25H196v11.5c0 6.325-.357 11.5-.794 11.5-.437 0-2.8-4.118-5.25-9.152-5.972-12.265-7.293-13.848-11.56-13.848-1.907 0-3.682.58-3.955 1.294m-25.133 3.694c-5.596 2.309-7.762 14.237-3.601 19.832 2.883 3.877 9.295 4.269 12.782.782 2.165-2.166 2.511-3.404 2.511-9.001 0-5.317-.406-6.944-2.25-9.008-2.585-2.892-6.276-3.911-9.442-2.605m-81.11 7.831c-1.209 3.752-2.198 7.128-2.198 7.502 0 .786 8.411.935 9.183.163.563-.563-3.015-12.515-4.112-13.736-.372-.414-1.665 2.318-2.873 6.071m13.052 31.843c-2.47.997-1.391 5.214 1.75 6.838 1.65.853 3 1.935 3 2.403 0 1.737-2.976 3.243-5.202 2.632-2.07-.568-2.114-.516-.439.528 1.363.849 2.498.868 4.25.069 3.378-1.539 3.056-4.737-.671-6.664-3.534-1.827-3.668-5.012-.207-4.894 1.193.041 1.94-.297 1.66-.75-.553-.895-2.168-.958-4.141-.162m17.078 5.838c.005 3.85.185 5.302.402 3.228.216-2.075.213-5.225-.008-7-.221-1.776-.398-.078-.394 3.772m12.922-5.838c-2.47.997-1.391 5.214 1.75 6.838 1.65.853 3 1.935 3 2.403 0 1.737-2.976 3.243-5.202 2.632-2.07-.568-2.114-.516-.439.528 1.363.849 2.498.868 4.25.069 3.378-1.539 3.056-4.737-.671-6.664-3.534-1.827-3.668-5.012-.207-4.894 1.193.041 1.94-.297 1.66-.75-.553-.895-2.168-.958-4.141-.162m16.5.044c2.044.393 2.266 1.046 2.423 7.114l.172 6.68.578-6.405c.466-5.169.963-6.554 2.577-7.179 1.346-.522.364-.754-3-.71-2.75.037-3.987.261-2.75.5m17.917-.039c-1.072 1.071-.768 12.333.333 12.333.55 0 1-1.319 1-2.93 0-2.244.527-3.032 2.25-3.364l2.25-.434-2.25-.136c-1.68-.101-2.25-.753-2.25-2.57 0-1.887.617-2.527 2.75-2.85 2.694-.408 2.688-.419-.333-.566-1.696-.083-3.384.15-3.75.517m17.501 6l.168 6.833.582-6c.636-6.553 1.47-6.181 4.045 1.802.674 2.091 1.705 3.642 2.291 3.447.585-.195 2.005-2.806 3.155-5.802l2.091-5.447.582 6 .582 6 .168-6.75c.092-3.713-.213-6.75-.678-6.75-.465 0-1.968 2.588-3.341 5.75l-2.495 5.75-1.648-4c-2.22-5.387-3.098-6.809-4.491-7.274-.839-.279-1.13 1.579-1.011 6.441" fill="#1976D2" fill-rule="evenodd"/></svg>